<svg version="1.1" id="Layer_1" xmlns="http://www.w3.org/2000/svg" xmlns:xlink="http://www.w3.org/1999/xlink" x="0px" y="0px"
	 width="100%" viewBox="0 0 2000 2000" enable-background="new 0 0 2000 2000" xml:space="preserve">
<path fill="#000000" opacity="1.000000" stroke="none" 
	d="
M930.000000,2001.000000 
	C620.000000,2001.000000 310.500000,2001.000000 1.000000,2001.000000 
	C1.000000,1334.333374 1.000000,667.666687 1.000000,1.000000 
	C667.666687,1.000000 1334.333374,1.000000 2001.000000,1.000000 
	C2001.000000,667.666687 2001.000000,1334.333374 2001.000000,2001.000000 
	C1644.166626,2001.000000 1287.333374,2001.000000 930.000000,2001.000000 
M407.768219,1420.074585 
	C407.768219,1420.074585 407.956512,1419.910767 407.956512,1419.910767 
	C407.956512,1419.910767 407.816376,1420.025757 408.044189,1420.540649 
	C408.366821,1420.690186 408.689423,1420.839722 409.170837,1421.646973 
	C417.322510,1428.491699 425.474152,1435.336426 433.546112,1442.828613 
	C437.033905,1445.530396 440.521698,1448.232300 444.140259,1451.707275 
	C443.860687,1452.441772 443.614594,1453.797729 443.296417,1453.814819 
	C440.013031,1453.991577 436.717834,1453.937744 433.426239,1453.975098 
	C415.971588,1454.173096 398.517059,1454.378784 380.262787,1454.295044 
	C368.004517,1454.718262 355.746277,1455.141602 343.488007,1455.564819 
	C343.477417,1455.852661 343.466858,1456.140625 343.456268,1456.428589 
	C355.933899,1456.428589 368.411530,1456.428589 381.693848,1456.641357 
	C402.480652,1456.641357 423.267426,1456.641357 444.054230,1456.641357 
	C444.313019,1457.429321 444.571838,1458.217407 444.830658,1459.005371 
	C442.914948,1460.674438 440.999268,1462.343506 439.030151,1464.366821 
	C438.707123,1464.388306 438.384125,1464.409668 438.061066,1464.430908 
	C438.385956,1464.290161 438.710876,1464.149292 439.267731,1463.285400 
	C442.869263,1461.417969 446.406494,1458.103027 450.083771,1457.939575 
	C464.284424,1457.308472 478.529816,1457.683228 493.712524,1457.683228 
	C492.511627,1459.876465 491.659424,1461.432861 491.001801,1462.971069 
	C491.001801,1462.971069 490.819244,1463.099731 490.819244,1463.099731 
	C490.819244,1463.099731 490.897552,1462.890991 490.938751,1462.133911 
	C494.519989,1458.569702 498.750244,1457.407349 503.834167,1457.636841 
	C511.560455,1457.985474 519.317505,1457.652344 527.974487,1457.771484 
	C533.023254,1458.175049 538.071960,1458.578613 542.695374,1459.345459 
	C542.724915,1459.529663 542.754395,1459.713745 542.114197,1460.031982 
	C531.500977,1469.012329 520.887756,1477.992798 510.274506,1486.973145 
	C510.606262,1487.366699 510.938019,1487.760254 511.269745,1488.153809 
	C514.261963,1485.670288 517.329163,1483.270996 520.231750,1480.686646 
	C527.883423,1473.873657 535.463806,1466.980469 543.680786,1460.169556 
	C543.928040,1459.860718 544.175293,1459.551880 545.119751,1458.817017 
	C546.021545,1458.506592 546.922485,1457.928833 547.825195,1457.926147 
	C560.909607,1457.886841 573.994324,1457.901855 587.078491,1457.989624 
	C588.067444,1457.996216 589.052063,1458.651489 589.460205,1459.353394 
	C578.611633,1468.874023 567.763062,1478.394775 556.306519,1488.100830 
	C555.567688,1489.082153 554.828857,1490.063477 553.670837,1491.160645 
	C553.639648,1491.336060 553.608459,1491.511353 553.577271,1491.686768 
	C553.713501,1491.437500 553.849731,1491.188110 554.258545,1490.291504 
	C555.377686,1489.745361 556.496887,1489.199341 558.158936,1488.262573 
	C569.441101,1478.509277 580.723267,1468.756104 592.720398,1458.623169 
	C593.083191,1458.292480 593.449463,1457.670044 593.808411,1457.674316 
	C601.757996,1457.767822 609.730347,1458.374390 617.648865,1457.953003 
	C625.257080,1457.548096 632.872803,1460.499146 640.428589,1457.761108 
	C640.555420,1457.715210 640.741882,1457.870728 640.901001,1457.871948 
	C648.036011,1457.927002 655.170959,1457.995117 662.306091,1458.019165 
	C669.634460,1458.043701 676.991089,1458.421875 684.283142,1457.906616 
	C690.880737,1457.440430 697.334473,1459.211792 703.990295,1458.178955 
	C709.030640,1457.396851 714.289124,1458.019409 719.450562,1458.019409 
	C724.611450,1458.019409 729.773254,1458.085693 734.932861,1458.005737 
	C739.540710,1457.934204 744.102722,1458.424072 748.760986,1458.202026 
	C760.783203,1457.628784 772.847595,1457.894653 784.894714,1457.942383 
	C786.634827,1457.949341 788.372375,1458.600708 790.432312,1459.519287 
	C792.304993,1460.559326 794.177734,1461.599365 795.789246,1462.494385 
	C794.815430,1461.121948 790.005981,1461.814697 793.838318,1457.835815 
	C800.208740,1457.681763 806.579102,1457.527710 813.848999,1457.685791 
	C816.813843,1457.599731 819.794128,1457.281006 822.740173,1457.477295 
	C828.456970,1457.858276 834.154541,1458.528687 840.200623,1459.718506 
	C840.815063,1459.782837 841.429504,1459.847168 841.779236,1460.593140 
	C845.531067,1463.725586 849.282837,1466.858032 852.862244,1470.670654 
	C860.256775,1477.069092 867.618042,1483.506836 875.093140,1489.809570 
	C875.905945,1490.494995 877.375610,1490.401245 878.129883,1490.974487 
	C878.217346,1491.193726 878.304810,1491.412964 878.392273,1491.632202 
	C878.426697,1491.318359 878.461121,1491.004639 877.871765,1490.405640 
	C869.965881,1483.582153 862.059998,1476.758667 853.769470,1469.375732 
	C849.831360,1466.261108 845.893250,1463.146606 842.050964,1459.606323 
	C842.053589,1459.274902 841.903076,1459.042847 841.608093,1458.204834 
	C843.168213,1457.961060 844.722839,1457.554443 846.289429,1457.501831 
	C853.193176,1457.269531 860.100281,1457.139404 867.385498,1457.125732 
	C867.910583,1457.030518 868.435669,1456.935425 869.843750,1457.192993 
	C876.723022,1458.067871 884.100342,1455.010498 890.759521,1460.258911 
	C890.646057,1458.888672 890.575134,1458.032349 890.433350,1456.320312 
	C916.115967,1456.320312 941.684509,1456.320312 966.772400,1456.320312 
	C963.563416,1455.851196 959.876038,1454.963257 956.162231,1454.834351 
	C944.684875,1454.435547 933.190125,1453.970825 921.716003,1454.206543 
	C910.759583,1454.431763 899.886047,1453.021606 888.890442,1453.602173 
	C875.784180,1454.294189 862.612915,1453.816528 849.471436,1453.684692 
	C848.144592,1453.671509 846.828918,1452.549561 845.986328,1452.162109 
	C843.173767,1452.709595 840.540161,1453.596069 837.883850,1453.670532 
	C829.253418,1453.913086 820.614685,1453.858154 811.135315,1453.637085 
	C808.776489,1453.698242 806.417725,1453.759277 803.683289,1453.534180 
	C803.109985,1453.655762 802.536743,1453.777222 801.250549,1453.567993 
	C799.404724,1453.165771 797.558899,1452.763672 795.961243,1451.901245 
	C795.553711,1451.827026 795.146118,1451.752808 793.948730,1451.968262 
	C792.098572,1452.444336 790.253662,1453.308350 788.397400,1453.333618 
	C776.507263,1453.494995 764.614380,1453.517578 752.723267,1453.445068 
	C751.417236,1453.437012 750.116638,1452.533936 749.073364,1451.530518 
	C749.033447,1451.342163 748.993591,1451.153931 749.663635,1450.883423 
	C750.256104,1450.655884 750.974670,1450.572266 751.422485,1450.179688 
	C761.498901,1441.348022 771.545532,1432.482422 782.046387,1423.297119 
	C782.383484,1422.882446 782.720581,1422.467773 783.573364,1421.954102 
	C783.732483,1421.662964 783.891602,1421.371948 784.083008,1420.630005 
	C784.352417,1420.439697 784.621765,1420.249512 785.490234,1419.636108 
	C784.730164,1420.531860 784.441406,1420.872192 783.608582,1420.841553 
	C783.230225,1421.026245 782.851868,1421.210938 782.003357,1421.700806 
	C781.636536,1422.098389 781.269775,1422.495850 780.252441,1423.093018 
	C774.531433,1427.924927 768.703369,1432.637207 763.121765,1437.625244 
	C758.285278,1441.947510 753.728210,1446.582520 748.477661,1450.706543 
	C748.185120,1451.030151 747.892578,1451.353638 746.838562,1452.077148 
	C744.403381,1452.376587 741.970032,1452.918457 739.532715,1452.936523 
	C722.611511,1453.062500 705.689514,1453.085327 688.767761,1453.130371 
	C665.536804,1453.192383 642.305908,1453.244629 618.498535,1453.136963 
	C618.306335,1453.191406 618.114197,1453.245850 617.006348,1453.147095 
	C611.532043,1453.141602 606.050110,1453.300293 600.587158,1453.048340 
	C598.456848,1452.950195 595.406006,1450.738037 594.427002,1451.530396 
	C589.926758,1455.172729 584.823730,1452.865234 580.145630,1453.505249 
	C573.880005,1454.362549 567.328491,1452.922241 560.980957,1453.448120 
	C554.772339,1453.962402 548.785278,1451.807861 542.438416,1453.226685 
	C537.215576,1454.394165 531.565552,1453.650513 525.220398,1453.383911 
	C513.709534,1452.698120 501.922424,1455.194092 490.581879,1450.087402 
	C490.711823,1450.039673 490.841736,1449.992065 490.971680,1449.944336 
	C490.884308,1450.072998 490.796936,1450.201538 491.622040,1450.439087 
	C492.296936,1451.275879 492.971802,1452.112671 494.439056,1453.931885 
	C483.124054,1453.931885 473.186951,1453.989136 463.250916,1453.911621 
	C456.665802,1453.860107 449.861847,1455.070435 444.342560,1450.424805 
	C440.896088,1447.616089 437.449585,1444.807373 433.730469,1441.384521 
	C425.700165,1434.452881 417.671051,1427.520020 409.616760,1420.616211 
	C409.554779,1420.563110 409.148132,1420.912109 409.258881,1420.402344 
	C408.804657,1420.314087 408.350433,1420.225708 407.768219,1420.074585 
M509.764191,1420.091187 
	C509.764191,1420.091187 509.946472,1419.934448 509.946472,1419.934448 
	C509.946472,1419.934448 509.805023,1420.054077 510.045959,1420.554565 
	C510.365082,1420.702271 510.684204,1420.849976 511.174225,1421.651855 
	C518.944519,1428.433838 526.714844,1435.215942 534.485168,1441.997925 
	C534.782288,1441.685791 535.079407,1441.373657 535.376526,1441.061646 
	C534.942383,1440.494995 534.591431,1439.831543 534.061401,1439.376709 
	C527.290100,1433.564575 520.513123,1427.758423 513.672180,1422.028931 
	C512.974792,1421.444824 511.854492,1421.365845 511.248047,1420.354858 
	C510.792694,1420.292847 510.337341,1420.230957 509.764191,1420.091187 
M1183.854858,648.069092 
	C1183.854858,648.069092 1183.915771,647.809509 1183.915771,647.809509 
	C1183.915771,647.809509 1183.952637,648.003418 1184.046875,647.953247 
	C1184.046875,647.953247 1183.990234,647.984192 1183.854858,648.069092 
M1390.836304,654.111267 
	C1390.435059,653.940002 1390.033936,653.768799 1389.219116,653.694702 
	C1389.219116,653.694702 1389.003906,654.061035 1388.200806,654.362183 
	C1387.299683,654.707947 1386.399536,655.352234 1385.497437,655.354675 
	C1372.560669,655.390442 1359.623413,655.366455 1346.687256,655.255920 
	C1345.701172,655.247559 1344.721680,654.477295 1344.061279,653.575256 
	C1344.039673,653.382080 1344.017944,653.188965 1344.698853,652.903625 
	C1347.757690,649.932251 1350.816528,646.960876 1353.930786,643.385803 
	C1354.273682,643.217224 1354.616455,643.048645 1355.508667,643.442078 
	C1362.112671,637.914062 1368.716553,632.386047 1375.320557,626.858032 
	C1374.936401,626.413269 1374.552246,625.968445 1374.168091,625.523621 
	C1367.766113,631.325867 1361.364136,637.128052 1355.025513,643.574219 
	C1354.657349,643.719421 1354.289185,643.864685 1353.236816,643.995300 
	C1350.168579,647.016235 1347.100342,650.037170 1343.494263,652.596130 
	C1342.997925,653.065002 1342.501587,653.533875 1341.207153,654.413879 
	C1338.903320,654.600037 1336.600464,654.933838 1334.295654,654.946899 
	C1323.994019,655.005310 1313.691040,655.034607 1303.391113,654.885376 
	C1302.233643,654.868652 1301.093628,653.655457 1300.525146,652.564697 
	C1306.966919,647.022339 1313.408569,641.479980 1320.199829,635.623657 
	C1320.523071,635.449585 1320.846436,635.275513 1320.284546,635.578003 
	C1320.598999,635.187866 1320.268555,635.597778 1319.655151,636.738770 
	C1313.100342,642.174377 1306.545532,647.609985 1299.194214,652.968445 
	C1297.095337,653.755737 1295.006104,655.195129 1292.895996,655.226318 
	C1277.156128,655.459290 1261.411011,655.523010 1245.669800,655.385559 
	C1241.201660,655.346619 1236.740967,654.466736 1232.640381,654.012756 
	C1231.546509,654.371826 1230.398682,655.069214 1229.245850,655.077393 
	C1217.794312,655.159058 1206.341309,655.175781 1194.890137,655.068970 
	C1193.342651,655.054626 1191.802368,654.257751 1189.960938,653.233337 
	C1188.623169,652.555847 1187.285400,651.878418 1186.436035,651.448303 
	C1186.923828,652.616089 1187.514893,654.030945 1187.210327,655.157959 
	C1183.814209,655.300598 1180.418091,655.443237 1176.226318,655.628235 
	C1175.438721,655.628662 1174.651245,655.629089 1173.040527,655.193420 
	C1164.898804,655.256531 1156.756226,655.405151 1148.616089,655.318726 
	C1146.740234,655.298828 1144.872925,654.473083 1142.783203,653.675964 
	C1142.783203,653.675964 1142.382202,653.612183 1141.979248,653.127319 
	C1141.588257,653.162842 1141.197144,653.198364 1140.362671,653.073120 
	C1140.074829,652.691101 1139.786987,652.309082 1139.612915,652.078064 
	C1139.897095,652.298401 1140.411743,652.697449 1141.021851,653.551331 
	C1141.001221,653.878174 1141.072632,654.183594 1141.268921,654.562561 
	C1141.268921,654.562561 1141.310059,654.654297 1140.893188,655.229736 
	C1134.295166,655.400574 1127.697266,655.571411 1120.212158,655.382019 
	C1112.614258,655.361145 1105.007080,655.549805 1097.423584,655.208984 
	C1094.670166,655.085144 1091.973633,653.697388 1088.911255,652.296692 
	C1077.028442,642.027039 1065.145752,631.757385 1053.262939,621.487732 
	C1052.912231,621.904358 1052.561646,622.320984 1052.210938,622.737610 
	C1060.960449,630.311401 1069.676025,637.925232 1078.478149,645.437439 
	C1081.572998,648.078735 1084.880371,650.471191 1088.263306,653.993530 
	C1087.036987,654.572937 1085.822144,655.626587 1084.582642,655.656128 
	C1075.309082,655.877075 1066.030151,656.003357 1056.754272,655.939331 
	C1050.675537,655.897461 1044.356934,656.954407 1039.228027,652.391296 
	C1035.902466,649.489441 1032.577026,646.587646 1029.251465,643.685791 
	C1028.839111,644.197449 1028.426758,644.709045 1028.014282,645.220703 
	C1031.683350,647.800720 1035.352295,650.380798 1039.041504,653.734253 
	C1038.589722,654.460571 1038.152466,655.812134 1037.684204,655.822876 
	C1020.158203,656.225037 1002.630371,656.604675 985.100708,656.768188 
	C969.585632,656.912903 954.068176,656.798462 938.551758,656.798462 
	C939.075745,657.713074 939.654541,657.921326 940.238159,657.935913 
	C955.995728,658.331604 971.752258,658.788452 987.511963,659.064087 
	C1003.582947,659.345337 1019.657288,659.431946 1035.729614,659.645386 
	C1037.301025,659.666260 1039.630615,658.901917 1038.948486,662.659363 
	C1038.253540,663.436768 1037.558472,664.214172 1037.034302,665.034485 
	C1037.034302,665.034485 1036.803833,665.093323 1036.803833,665.093323 
	C1036.803833,665.093323 1036.943726,664.931396 1036.931641,664.273560 
	C1037.640869,663.509888 1038.350098,662.746216 1039.855957,661.971802 
	C1041.288330,661.214783 1042.713623,659.816284 1044.154297,659.800049 
	C1058.677734,659.637207 1073.203857,659.700806 1089.073120,659.700806 
	C1086.930542,662.045471 1085.640869,663.456726 1084.351318,664.867981 
	C1088.921387,660.497803 1094.356934,659.256714 1100.642334,659.640381 
	C1107.753784,660.074524 1114.917358,659.656311 1122.970337,659.775146 
	C1127.667969,659.757141 1132.365479,659.739136 1137.677002,660.318665 
	C1133.451782,664.149597 1129.245605,668.001831 1124.996704,671.806335 
	C1118.862061,677.299377 1112.696533,682.757812 1106.544067,688.231018 
	C1106.876221,688.602051 1107.208374,688.973145 1107.540649,689.344177 
	C1118.062866,680.009766 1128.585205,670.675354 1139.869385,660.937195 
	C1141.242432,660.587952 1142.614502,659.940857 1143.988770,659.935730 
	C1157.348633,659.885742 1170.708984,659.943237 1184.625122,660.569153 
	C1175.181274,669.005371 1165.737427,677.441589 1156.293457,685.877869 
	C1156.681763,686.298584 1157.070068,686.719360 1157.458374,687.140076 
	C1166.638550,678.757629 1175.818848,670.375122 1185.769043,661.927917 
	C1187.127319,661.209351 1188.479492,659.885559 1189.844604,659.872192 
	C1197.639771,659.795837 1205.478516,660.577637 1213.223511,660.002808 
	C1220.503784,659.462524 1227.751465,662.818298 1234.957031,659.890625 
	C1235.110596,659.828186 1235.273926,659.745667 1235.432495,659.745911 
	C1251.535889,659.769897 1267.639893,659.734070 1283.742188,659.885376 
	C1287.144531,659.917419 1290.540649,660.635864 1294.327148,661.663025 
	C1294.901733,661.739258 1295.476196,661.815491 1295.674805,662.544128 
	C1299.463257,665.692444 1303.251587,668.840698 1306.878052,672.670166 
	C1314.269287,679.066345 1321.627563,685.501404 1329.098877,691.802612 
	C1329.912964,692.489258 1331.378540,692.403381 1332.104370,692.970886 
	C1332.198608,693.199219 1332.292847,693.427551 1332.387085,693.655823 
	C1332.419312,693.336426 1332.451416,693.017090 1331.868896,692.395996 
	C1325.549805,686.878357 1319.238159,681.351929 1312.906128,675.849182 
	C1311.358398,674.504150 1309.743652,673.236328 1307.819214,671.359192 
	C1303.869751,668.247253 1299.920288,665.135315 1296.005981,661.348755 
	C1296.031616,660.913025 1296.057373,660.477356 1297.010010,660.028748 
	C1311.458252,660.512634 1325.906372,660.996521 1340.518188,661.858521 
	C1340.619019,662.132629 1340.719971,662.406738 1340.820923,662.680786 
	C1340.681030,662.296326 1340.541016,661.911865 1339.772217,660.888794 
	C1339.846313,660.739929 1339.918579,660.461548 1339.994629,660.460571 
	C1354.281860,660.274780 1368.569336,660.085876 1382.857300,659.997009 
	C1383.736694,659.991577 1384.620972,660.781250 1385.891846,661.783264 
	C1387.919800,663.080505 1389.947876,664.377747 1391.229370,665.197449 
	C1390.176270,664.207214 1388.493164,662.624756 1387.205200,660.224426 
	C1393.792847,659.966370 1400.380493,659.708313 1407.880005,659.701599 
	C1417.201172,660.158569 1426.709473,657.969421 1435.279541,660.977600 
	C1437.102661,660.415344 1438.562622,659.623230 1440.052368,659.562622 
	C1447.994019,659.240173 1455.955811,658.731567 1463.885986,659.004456 
	C1471.406372,659.263367 1479.315796,657.288879 1485.659546,662.403259 
	C1489.410400,665.611572 1493.161255,668.819885 1496.807983,672.722290 
	C1504.446167,679.252930 1512.084473,685.783569 1519.722656,692.314209 
	C1520.053467,691.917358 1520.384277,691.520447 1520.715088,691.123596 
	C1513.216797,684.716553 1505.718384,678.309509 1497.879761,671.313354 
	C1493.976318,668.206116 1490.072754,665.098816 1485.764038,661.292175 
	C1486.006348,660.545715 1486.224365,659.158875 1486.494507,659.148682 
	C1490.568359,658.994934 1494.649536,659.049988 1498.728149,659.001831 
	C1510.471924,658.863159 1522.215332,658.700012 1534.683350,658.900879 
	C1541.685425,658.683289 1548.686157,658.391846 1555.689819,658.270325 
	C1561.828491,658.163818 1567.970581,658.248047 1574.111084,658.248047 
	C1574.106689,657.609985 1574.102295,656.971985 1574.097900,656.333923 
	C1560.720337,656.333923 1547.342896,656.333923 1533.048706,656.151184 
	C1520.210449,656.037415 1507.371094,655.977722 1494.534912,655.747498 
	C1492.752563,655.715576 1490.985229,654.842590 1489.411621,654.413635 
	C1486.611694,654.863342 1483.801514,655.669983 1480.981201,655.707031 
	C1467.732178,655.881165 1454.480469,655.843872 1440.833130,655.520752 
	C1440.793945,655.346375 1440.754639,655.171936 1441.030884,654.076599 
	C1436.907349,654.623230 1432.796753,655.468628 1428.657227,655.650269 
	C1421.443848,655.966614 1414.212402,655.873840 1406.101562,655.637085 
	C1400.854126,655.415894 1395.606567,655.194763 1390.513062,654.804749 
	C1390.513062,654.804749 1390.525757,654.576599 1390.836304,654.111267 
M927.243225,1490.931519 
	C927.243225,1490.931519 927.132751,1491.008667 927.132751,1491.008667 
	C927.132751,1491.008667 927.150452,1490.827026 926.938477,1490.358765 
	C926.638062,1490.227295 926.337646,1490.095825 925.863098,1489.311768 
	C918.050232,1482.434570 910.237305,1475.557373 902.388428,1468.648560 
	C902.666382,1469.614014 902.623962,1471.331421 903.448059,1472.037964 
	C910.724670,1478.274658 918.155273,1484.331787 925.994019,1490.899658 
	C926.385620,1490.840454 926.777161,1490.781372 927.243225,1490.931519 
M588.905945,1446.060425 
	C588.905945,1446.060425 588.911072,1445.818237 588.911072,1445.818237 
	C588.911072,1445.818237 589.001587,1445.992065 589.270630,1446.099609 
	C589.175842,1446.037598 589.080994,1445.975708 588.905945,1446.060425 
M828.999329,1421.687012 
	C828.632385,1422.087524 828.265442,1422.488159 827.248291,1423.088135 
	C820.398071,1428.912842 813.547852,1434.737671 806.697571,1440.562378 
	C807.087097,1440.998413 807.476624,1441.434570 807.866150,1441.870605 
	C814.772766,1435.786499 821.679382,1429.702515 829.037048,1423.294189 
	C829.373596,1422.876953 829.710083,1422.459717 830.560852,1421.946655 
	C830.725403,1421.658936 830.890015,1421.371094 831.083130,1420.638794 
	C831.204468,1420.526978 831.315674,1420.400269 831.450317,1420.307861 
	C831.571411,1420.224731 831.718506,1420.179443 831.854004,1420.117310 
	C831.621277,1420.483032 831.388550,1420.848877 830.612183,1420.846680 
	C830.230652,1421.022339 829.849121,1421.197998 828.999329,1421.687012 
M507.305573,1490.237305 
	C508.276978,1489.747192 509.248383,1489.257080 510.219788,1488.766968 
	C510.010956,1488.475952 509.802094,1488.184937 509.593231,1487.894043 
	C508.752869,1488.940552 507.912506,1489.987061 506.710571,1491.139893 
	C506.491699,1491.315552 506.267822,1491.486084 506.065125,1491.678711 
	C506.051514,1491.691895 506.198517,1491.873901 506.270844,1491.977295 
	C506.502625,1491.627197 506.734406,1491.276978 507.305573,1490.237305 
M1102.318604,692.338257 
	C1103.664429,691.510681 1105.010254,690.683105 1106.356079,689.855530 
	C1106.062134,689.527527 1105.768311,689.199585 1105.474487,688.871643 
	C1104.388306,690.278931 1103.302246,691.686279 1102.023560,693.303711 
	C1102.023560,693.303711 1101.861450,693.033936 1101.861450,693.033936 
	C1101.861450,693.033936 1102.123047,693.066345 1102.318604,692.338257 
M624.281433,1467.146484 
	C625.734802,1466.798340 627.188232,1466.450073 628.641602,1466.101929 
	C628.533020,1465.822021 628.424438,1465.542236 628.315857,1465.262451 
	C626.866516,1466.150879 625.417175,1467.039185 624.043152,1468.563965 
	C623.686157,1468.721069 623.329163,1468.878296 622.478333,1469.536133 
	C614.292969,1476.195190 606.107605,1482.854248 597.922241,1489.513306 
	C599.383057,1490.027344 600.305481,1489.804565 600.959045,1489.259277 
	C607.566711,1483.747070 614.168091,1478.225586 620.667542,1472.586914 
	C621.690552,1471.699463 622.195740,1470.215088 622.940491,1468.395142 
	C623.282532,1468.220825 623.624573,1468.046509 624.281433,1467.146484 
M1362.853394,683.218750 
	C1364.172852,684.289307 1365.491333,685.361084 1366.818237,686.422241 
	C1366.846069,686.444458 1366.971069,686.345154 1367.952148,685.820312 
	C1366.178467,684.332825 1364.673340,683.070496 1362.868408,681.211426 
	C1358.623291,677.412903 1354.378174,673.614319 1349.797974,669.515930 
	C1350.977417,671.484924 1351.696045,673.482178 1353.065552,674.806030 
	C1356.005981,677.648315 1359.282104,680.143311 1362.853394,683.218750 
M1005.225647,622.977539 
	C1004.593872,622.754456 1003.962158,622.531372 1002.307190,621.946960 
	C1003.693542,623.114990 1004.288452,623.616211 1005.135681,624.742493 
	C1012.626343,631.227478 1020.116943,637.712402 1027.607544,644.197388 
	C1028.016846,643.724060 1028.426025,643.250671 1028.835205,642.777344 
	C1021.091309,636.294556 1013.347412,629.811829 1005.225647,622.977539 
M904.963867,1443.188965 
	C912.841492,1436.683838 920.719116,1430.178711 928.596741,1423.673584 
	C928.214783,1423.239624 927.832886,1422.805664 927.450928,1422.371704 
	C920.052185,1429.726807 910.309204,1434.516357 905.021729,1444.013306 
	C905.021729,1444.013306 904.827209,1444.084473 904.827209,1444.084473 
	C904.827209,1444.084473 904.938843,1443.925659 904.963867,1443.188965 
M1197.816406,622.387268 
	C1197.340820,622.259583 1196.865234,622.131958 1195.472290,621.757996 
	C1196.641479,622.814331 1197.067505,623.199280 1197.878784,624.112732 
	C1205.812744,631.050720 1213.746704,637.988770 1221.680664,644.926758 
	C1222.087524,644.467346 1222.494263,644.007935 1222.901123,643.548523 
	C1214.620361,636.675537 1206.339478,629.802551 1197.816406,622.387268 
M1107.226562,622.949951 
	C1106.514160,622.558777 1105.801758,622.167603 1105.089355,621.776367 
	C1104.956909,621.979919 1104.824463,622.183472 1104.692017,622.387024 
	C1105.423096,622.963196 1106.154053,623.539307 1107.139893,624.739380 
	C1115.552856,632.032715 1123.965820,639.326050 1132.378784,646.619385 
	C1125.304810,637.506470 1116.369751,630.499207 1107.226562,622.949951 
M1444.241455,651.486023 
	C1446.190430,649.590759 1448.024780,647.557800 1450.107788,645.823792 
	C1459.397705,638.090698 1468.758667,630.443115 1478.958618,622.053406 
	C1477.184448,622.053406 1476.775513,621.924866 1476.607178,622.071899 
	C1466.051025,631.291687 1455.502075,640.520020 1445.011230,649.813843 
	C1444.473511,650.290222 1444.448120,651.344971 1444.094116,652.243103 
	C1444.094116,652.243103 1443.933960,652.036499 1443.933960,652.036499 
	C1443.933960,652.036499 1444.070435,652.206787 1444.241455,651.486023 
M601.720215,1419.592163 
	C601.588257,1419.629517 601.456299,1419.666870 601.324280,1419.704224 
	C601.482239,1419.842773 601.640198,1419.981323 601.798218,1420.119751 
	C601.935852,1419.933228 602.073486,1419.746704 601.665161,1420.147095 
	C602.610413,1421.274780 603.430054,1422.544800 604.520874,1423.507568 
	C612.936646,1430.934692 621.397278,1438.311157 629.862000,1445.682617 
	C632.101807,1447.633179 634.404053,1449.511841 636.677612,1451.423462 
	C637.047974,1450.971069 637.418274,1450.518677 637.788635,1450.066284 
	C625.918823,1439.935913 614.049072,1429.805664 601.720215,1419.592163 
M891.253967,1358.742432 
	C895.152527,1355.901123 899.168396,1353.206421 902.931091,1350.195312 
	C934.007141,1325.327271 958.538208,1295.344116 973.685425,1258.266479 
	C986.595398,1226.665161 990.041260,1193.685425 987.389099,1159.827271 
	C984.673828,1125.165161 975.108765,1092.609985 958.473633,1062.102051 
	C937.784302,1024.158936 908.680298,993.602295 875.029907,967.047180 
	C814.642334,919.392334 754.234375,871.763489 693.832275,824.127075 
	C678.088928,811.710999 664.677368,797.340088 656.207397,778.896179 
	C646.748169,758.298279 644.825073,736.656494 647.961304,714.475830 
	C654.493591,668.277222 680.046631,636.513977 723.309570,620.327148 
	C756.818542,607.789673 791.019104,610.471863 823.656616,624.405090 
	C854.034424,637.373657 874.993225,659.617615 882.426941,692.744568 
	C884.193848,700.618225 884.758972,708.761475 885.868835,716.723389 
	C888.971924,716.723389 892.057739,716.723389 895.437439,716.723389 
	C894.811768,675.347351 894.190430,634.255066 893.564087,592.829468 
	C888.247559,592.829468 883.430969,592.894226 878.616760,592.815674 
	C869.304993,592.663818 859.910217,593.152954 850.701721,592.077026 
	C833.200684,590.032227 815.866455,586.516541 798.353333,584.629333 
	C774.618225,582.071655 750.838318,581.792603 727.138306,585.961182 
	C685.261108,593.326965 651.273926,613.587524 625.603516,647.529907 
	C602.804565,677.675537 591.844849,711.945618 590.107361,749.511658 
	C587.647278,802.699829 607.611694,845.468079 649.252014,878.315002 
	C704.420593,921.833252 759.583984,965.358398 814.841614,1008.763306 
	C836.349365,1025.657593 858.061768,1042.370850 874.709534,1064.377075 
	C911.112183,1112.497192 927.953796,1165.260742 913.030823,1225.797363 
	C901.873230,1271.059082 877.884766,1306.753418 837.918457,1331.369141 
	C813.476807,1346.423218 787.086182,1355.653320 758.617676,1359.245972 
	C709.221985,1365.479248 662.454651,1359.196899 619.882568,1331.344482 
	C588.582275,1310.866577 563.947083,1284.791260 550.202393,1249.512329 
	C536.952576,1215.503662 535.916016,1180.308350 541.658081,1144.784668 
	C547.592346,1108.071899 562.230652,1074.837891 583.747192,1044.577759 
	C586.101746,1041.266479 588.367432,1037.892090 590.759216,1034.423950 
	C587.608765,1032.053711 584.858704,1029.984619 581.544617,1027.491211 
	C573.511963,1037.431396 565.098999,1046.710938 557.948669,1056.878662 
	C518.988159,1112.280518 503.395081,1172.690063 520.057129,1239.665527 
	C531.861145,1287.113647 556.472107,1326.120239 596.867432,1354.380615 
	C630.979248,1378.244873 669.164185,1391.364502 710.360962,1395.960083 
	C736.964783,1398.927734 763.555725,1398.446289 790.112061,1394.967529 
	C826.213074,1390.238770 860.067932,1379.309814 891.253967,1358.742432 
M1415.011597,1426.537476 
	C1459.373535,1403.423462 1494.983154,1370.515747 1523.420532,1329.598267 
	C1524.148682,1328.550659 1524.946533,1327.244873 1524.957153,1326.052856 
	C1525.068359,1313.464844 1525.026001,1300.875488 1525.026001,1286.860107 
	C1523.619141,1289.534302 1522.876099,1290.930176 1522.147705,1292.333740 
	C1497.654663,1339.533569 1464.866455,1379.141113 1416.603516,1403.464233 
	C1367.257812,1428.332642 1316.552490,1430.192627 1265.703003,1407.923096 
	C1220.940552,1388.319336 1188.230225,1355.094971 1163.017456,1313.988647 
	C1135.920044,1269.809570 1121.079590,1221.534180 1115.747803,1170.163818 
	C1110.046509,1115.232788 1115.023804,1061.433472 1133.144653,1009.103699 
	C1150.584717,958.739746 1177.528931,914.589966 1219.143188,880.411194 
	C1249.500000,855.478394 1284.038086,840.002197 1323.519165,837.145996 
	C1373.232788,833.549500 1416.480835,849.884521 1454.568115,881.146179 
	C1482.289062,903.899353 1503.293579,932.026794 1519.954468,963.578003 
	C1521.356689,966.233215 1522.812744,968.860046 1524.243774,971.500061 
	C1525.039673,958.934631 1525.093994,946.775696 1524.971313,934.618530 
	C1524.955933,933.088867 1524.332764,931.342224 1523.447266,930.076660 
	C1493.800781,887.703918 1456.927856,853.471680 1410.202759,830.593811 
	C1351.467896,801.835449 1290.181396,795.510071 1227.024902,812.120178 
	C1172.000977,826.591370 1126.147461,856.638855 1088.736938,899.168823 
	C1038.930298,955.791382 1011.717651,1022.485291 1005.398865,1097.266724 
	C1000.628967,1153.717285 1007.757202,1209.000732 1029.021851,1261.914551 
	C1058.745972,1335.878052 1106.894165,1393.538086 1179.067993,1429.498657 
	C1221.014526,1450.398560 1265.669189,1458.675781 1312.247681,1455.642456 
	C1348.195312,1453.301514 1382.250000,1443.336792 1415.011597,1426.537476 
M821.248535,1486.230103 
	C823.337524,1487.914429 825.426514,1489.598633 827.515564,1491.282837 
	C827.782410,1490.941772 828.049316,1490.600708 828.316223,1490.259521 
	C821.033630,1483.921387 813.772034,1477.558838 806.455566,1471.259888 
	C804.264221,1469.373291 801.919922,1467.664307 799.645630,1465.874023 
	C799.443665,1466.105225 799.241638,1466.336548 799.039673,1466.567749 
	C806.248230,1472.985596 813.456787,1479.403442 821.248535,1486.230103 
M479.340607,1437.180054 
	C472.880341,1431.889526 466.420074,1426.599121 459.959778,1421.308594 
	C459.654846,1421.714844 459.349915,1422.121216 459.044952,1422.527466 
	C468.142181,1430.085571 477.239380,1437.643677 486.336578,1445.201782 
	C486.437103,1445.067261 486.537628,1444.932739 486.638153,1444.798218 
	C484.379974,1442.418457 482.121826,1440.038696 479.340607,1437.180054 
M1464.467651,686.465271 
	C1465.156982,687.014282 1465.846191,687.563293 1466.535522,688.112305 
	C1466.680542,687.939392 1466.825684,687.766479 1466.970703,687.593567 
	C1457.193359,678.934814 1447.416138,670.276123 1437.638794,661.617432 
	C1437.204468,662.129272 1436.770020,662.641113 1436.335571,663.152954 
	C1445.514038,670.849670 1454.692505,678.546387 1464.467651,686.465271 
M729.816284,1428.454834 
	C721.719116,1435.541870 713.621948,1442.628906 705.524841,1449.715942 
	C705.893738,1450.130005 706.262634,1450.544067 706.631592,1450.958130 
	C715.682007,1443.059937 724.732422,1435.161743 733.782837,1427.263672 
	C733.467773,1426.883911 733.152710,1426.504150 732.837646,1426.124390 
	C731.990295,1426.744873 731.142944,1427.365234 729.816284,1428.454834 
M1059.856201,685.388000 
	C1057.178223,687.678833 1054.500244,689.969727 1051.822266,692.260559 
	C1052.139282,692.624207 1052.456421,692.987854 1052.773560,693.351501 
	C1061.858032,685.516052 1070.942505,677.680603 1080.026855,669.845093 
	C1079.664673,669.430969 1079.302490,669.016785 1078.940308,668.602661 
	C1072.777832,674.066284 1066.615356,679.529968 1059.856201,685.388000 
M583.429077,1443.646240 
	C583.530518,1443.718750 583.631897,1443.791260 583.733276,1443.863770 
	C583.609314,1443.600464 583.495850,1443.331665 583.359619,1443.074829 
	C582.629028,1441.697021 582.203918,1439.968018 581.107361,1439.004395 
	C574.654541,1433.335205 568.056396,1427.830811 561.462097,1422.324829 
	C561.016663,1421.952637 560.201965,1422.022705 558.842651,1421.735962 
	C567.368286,1429.247437 575.300476,1436.236084 583.429077,1443.646240 
M1523.329712,625.333679 
	C1523.700928,624.896606 1524.072144,624.459473 1524.443359,624.022400 
	C1524.197388,623.762207 1523.951416,623.502014 1523.705444,623.241821 
	C1515.845459,629.933044 1507.985474,636.624207 1500.125488,643.315369 
	C1500.479370,643.725159 1500.833130,644.134888 1501.187012,644.544678 
	C1508.435059,638.296570 1515.683105,632.048462 1523.329712,625.333679 
M1165.968628,634.496033 
	C1170.256226,638.245117 1174.543823,641.994141 1178.831421,645.743164 
	C1172.971558,636.808167 1163.920532,631.251465 1156.281372,624.194458 
	C1155.980835,624.501465 1155.680420,624.808472 1155.379883,625.115417 
	C1158.729736,628.086914 1162.079712,631.058350 1165.968628,634.496033 
M860.209229,1440.394043 
	C867.334534,1434.197388 874.459900,1428.000732 881.585266,1421.804077 
	C881.251465,1421.423584 880.917664,1421.043091 880.583801,1420.662720 
	C872.636169,1427.507568 864.688477,1434.352417 856.740845,1441.197266 
	C856.909424,1441.436279 857.078003,1441.675171 857.246582,1441.914185 
	C858.095398,1441.561035 858.944214,1441.207886 860.209229,1440.394043 
M1404.403320,642.217468 
	C1410.310181,637.075745 1416.216919,631.934021 1422.123779,626.792297 
	C1419.692871,627.219788 1417.974976,628.453674 1416.370361,629.820801 
	C1411.847534,633.674377 1407.351440,637.560364 1402.912109,641.509216 
	C1402.529053,641.850037 1402.643555,642.750061 1402.526978,643.390381 
	C1402.976440,643.185608 1403.425781,642.980835 1404.403320,642.217468 
M1022.080139,675.681091 
	C1017.508240,679.655518 1012.936401,683.630005 1008.364502,687.604492 
	C1008.673767,687.954224 1008.983032,688.303894 1009.292297,688.653625 
	C1015.610229,683.291504 1021.928162,677.929321 1028.246094,672.567200 
	C1027.931763,672.170410 1027.617432,671.773560 1027.302979,671.376770 
	C1025.736816,672.654541 1024.170654,673.932251 1022.080139,675.681091 
M421.402008,1480.854614 
	C425.314270,1477.477539 429.226501,1474.100464 433.138733,1470.723389 
	C432.794952,1470.330444 432.451172,1469.937500 432.107361,1469.544556 
	C425.571625,1475.192383 419.035919,1480.840210 412.500183,1486.488159 
	C412.783508,1486.824829 413.066833,1487.161499 413.350159,1487.498169 
	C415.843445,1485.423706 418.336761,1483.349365 421.402008,1480.854614 
M769.279419,1482.209351 
	C770.109863,1482.743652 770.940308,1483.277954 771.770752,1483.812378 
	C766.710632,1478.062256 761.303528,1472.879028 755.884399,1467.707886 
	C755.876953,1467.700806 755.694580,1467.877319 755.357300,1468.181152 
	C755.441895,1468.619385 755.349121,1469.409668 755.694580,1469.736084 
	C759.989502,1473.793579 764.348083,1477.783691 769.279419,1482.209351 
M466.909912,1481.547607 
	C466.945160,1482.045532 466.980377,1482.543457 467.015625,1483.041382 
	C468.598267,1481.900513 470.282837,1480.876099 471.744629,1479.597168 
	C476.286560,1475.623535 480.743896,1471.553101 485.234100,1467.520264 
	C485.058289,1467.312622 484.882477,1467.105103 484.706665,1466.897583 
	C478.950409,1471.614258 473.194153,1476.330933 466.909912,1481.547607 
M542.141296,1448.035400 
	C543.046875,1448.480835 543.952515,1448.926147 545.146484,1449.513306 
	C544.069153,1448.887939 543.270874,1448.424438 542.141296,1448.035400 
M463.753174,1484.780273 
	C463.895569,1484.617920 464.037964,1484.455566 464.180420,1484.293335 
	C464.081390,1484.401123 463.982330,1484.508911 463.753174,1484.780273 
M488.145569,1464.096436 
	C488.032501,1464.075684 487.919464,1464.054932 487.806427,1464.034058 
	C487.883881,1464.088013 487.961304,1464.141968 488.145569,1464.096436 
M1135.545532,648.685669 
	C1135.494385,648.745361 1135.443237,648.805054 1135.545532,648.685669 
M1031.632568,669.132996 
	C1031.556396,669.027710 1031.480103,668.922363 1031.403931,668.817078 
	C1031.480103,668.840820 1031.556274,668.864563 1031.632568,669.132996 
M1469.577759,689.933655 
	C1469.570068,689.867188 1469.562500,689.800720 1469.577759,689.933655 
M434.462646,1469.318726 
	C434.517120,1469.258423 434.571594,1469.198120 434.462646,1469.318726 
M539.654968,1445.924438 
	C539.567810,1445.957886 539.480591,1445.991333 539.393372,1446.024780 
	C539.453735,1445.921265 539.514099,1445.817871 539.654968,1445.924438 
M1181.526001,647.506897 
	C1181.526001,647.506897 1181.487183,647.508301 1181.526001,647.506897 
M881.999878,1420.424805 
	C882.191528,1420.484009 882.383118,1420.543335 882.574707,1420.602661 
	C882.505859,1420.409912 882.437012,1420.217163 881.999878,1420.424805 
M1521.420410,692.992981 
	C1521.484009,692.780945 1521.547607,692.568909 1521.611084,692.356812 
	C1521.407104,692.431641 1521.203247,692.506470 1521.420410,692.992981 
z"/>
<path fill="#FEFEFE" opacity="1.000000" stroke="none" 
	d="
M890.942383,1358.923706 
	C860.067932,1379.309814 826.213074,1390.238770 790.112061,1394.967529 
	C763.555725,1398.446289 736.964783,1398.927734 710.360962,1395.960083 
	C669.164185,1391.364502 630.979248,1378.244873 596.867432,1354.380615 
	C556.472107,1326.120239 531.861145,1287.113647 520.057129,1239.665527 
	C503.395081,1172.690063 518.988159,1112.280518 557.948669,1056.878662 
	C565.098999,1046.710938 573.511963,1037.431396 581.544617,1027.491211 
	C584.858704,1029.984619 587.608765,1032.053711 590.759216,1034.423950 
	C588.367432,1037.892090 586.101746,1041.266479 583.747192,1044.577759 
	C562.230652,1074.837891 547.592346,1108.071899 541.658081,1144.784668 
	C535.916016,1180.308350 536.952576,1215.503662 550.202393,1249.512329 
	C563.947083,1284.791260 588.582275,1310.866577 619.882568,1331.344482 
	C662.454651,1359.196899 709.221985,1365.479248 758.617676,1359.245972 
	C787.086182,1355.653320 813.476807,1346.423218 837.918457,1331.369141 
	C877.884766,1306.753418 901.873230,1271.059082 913.030823,1225.797363 
	C927.953796,1165.260742 911.112183,1112.497192 874.709534,1064.377075 
	C858.061768,1042.370850 836.349365,1025.657593 814.841614,1008.763306 
	C759.583984,965.358398 704.420593,921.833252 649.252014,878.315002 
	C607.611694,845.468079 587.647278,802.699829 590.107361,749.511658 
	C591.844849,711.945618 602.804565,677.675537 625.603516,647.529907 
	C651.273926,613.587524 685.261108,593.326965 727.138306,585.961182 
	C750.838318,581.792603 774.618225,582.071655 798.353333,584.629333 
	C815.866455,586.516541 833.200684,590.032227 850.701721,592.077026 
	C859.910217,593.152954 869.304993,592.663818 878.616760,592.815674 
	C883.430969,592.894226 888.247559,592.829468 893.564087,592.829468 
	C894.190430,634.255066 894.811768,675.347351 895.437439,716.723389 
	C892.057739,716.723389 888.971924,716.723389 885.868835,716.723389 
	C884.758972,708.761475 884.193848,700.618225 882.426941,692.744568 
	C874.993225,659.617615 854.034424,637.373657 823.656616,624.405090 
	C791.019104,610.471863 756.818542,607.789673 723.309570,620.327148 
	C680.046631,636.513977 654.493591,668.277222 647.961304,714.475830 
	C644.825073,736.656494 646.748169,758.298279 656.207397,778.896179 
	C664.677368,797.340088 678.088928,811.710999 693.832275,824.127075 
	C754.234375,871.763489 814.642334,919.392334 875.029907,967.047180 
	C908.680298,993.602295 937.784302,1024.158936 958.473633,1062.102051 
	C975.108765,1092.609985 984.673828,1125.165161 987.389099,1159.827271 
	C990.041260,1193.685425 986.595398,1226.665161 973.685425,1258.266479 
	C958.538208,1295.344116 934.007141,1325.327271 902.931091,1350.195312 
	C899.168396,1353.206421 895.152527,1355.901123 890.942383,1358.923706 
z"/>
<path fill="#FE751F" opacity="1.000000" stroke="none" 
	d="
M1414.681396,1426.711182 
	C1382.250000,1443.336792 1348.195312,1453.301514 1312.247681,1455.642456 
	C1265.669189,1458.675781 1221.014526,1450.398560 1179.067993,1429.498657 
	C1106.894165,1393.538086 1058.745972,1335.878052 1029.021851,1261.914551 
	C1007.757202,1209.000732 1000.628967,1153.717285 1005.398865,1097.266724 
	C1011.717651,1022.485291 1038.930298,955.791382 1088.736938,899.168823 
	C1126.147461,856.638855 1172.000977,826.591370 1227.024902,812.120178 
	C1290.181396,795.510071 1351.467896,801.835449 1410.202759,830.593811 
	C1456.927856,853.471680 1493.800781,887.703918 1523.447266,930.076660 
	C1524.332764,931.342224 1524.955933,933.088867 1524.971313,934.618530 
	C1525.093994,946.775696 1525.039673,958.934631 1524.243774,971.500061 
	C1522.812744,968.860046 1521.356689,966.233215 1519.954468,963.578003 
	C1503.293579,932.026794 1482.289062,903.899353 1454.568115,881.146179 
	C1416.480835,849.884521 1373.232788,833.549500 1323.519165,837.145996 
	C1284.038086,840.002197 1249.500000,855.478394 1219.143188,880.411194 
	C1177.528931,914.589966 1150.584717,958.739746 1133.144653,1009.103699 
	C1115.023804,1061.433472 1110.046509,1115.232788 1115.747803,1170.163818 
	C1121.079590,1221.534180 1135.920044,1269.809570 1163.017456,1313.988647 
	C1188.230225,1355.094971 1220.940552,1388.319336 1265.703003,1407.923096 
	C1316.552490,1430.192627 1367.257812,1428.332642 1416.603516,1403.464233 
	C1464.866455,1379.141113 1497.654663,1339.533569 1522.147705,1292.333740 
	C1522.876099,1290.930176 1523.619141,1289.534302 1525.026001,1286.860107 
	C1525.026001,1300.875488 1525.068359,1313.464844 1524.957153,1326.052856 
	C1524.946533,1327.244873 1524.148682,1328.550659 1523.420532,1329.598267 
	C1494.983154,1370.515747 1459.373535,1403.423462 1414.681396,1426.711182 
z"/>
<path fill="#F2F2F2" opacity="1.000000" stroke="none" 
	d="
M748.813477,1452.046021 
	C750.116638,1452.533936 751.417236,1453.437012 752.723267,1453.445068 
	C764.614380,1453.517578 776.507263,1453.494995 788.397400,1453.333618 
	C790.253662,1453.308350 792.098572,1452.444336 794.562744,1452.029175 
	C795.355469,1452.180542 795.534302,1452.271118 795.713074,1452.361572 
	C797.558899,1452.763672 799.404724,1453.165771 801.744507,1453.993408 
	C802.845215,1454.219360 803.452026,1454.019897 804.058899,1453.820312 
	C806.417725,1453.759277 808.776489,1453.698242 811.575500,1454.079590 
	C812.326965,1455.472656 812.638245,1456.423218 812.949524,1457.373657 
	C806.579102,1457.527710 800.208740,1457.681763 793.183472,1457.572998 
	C791.722839,1457.858032 790.916992,1458.405884 790.111145,1458.953857 
	C788.372375,1458.600708 786.634827,1457.949341 784.894714,1457.942383 
	C772.847595,1457.894653 760.783203,1457.628784 748.760986,1458.202026 
	C744.102722,1458.424072 739.540710,1457.934204 734.932861,1458.005737 
	C729.773254,1458.085693 724.611450,1458.019409 719.450562,1458.019409 
	C714.289124,1458.019409 709.030640,1457.396851 703.990295,1458.178955 
	C697.334473,1459.211792 690.880737,1457.440430 684.283142,1457.906616 
	C676.991089,1458.421875 669.634460,1458.043701 662.306091,1458.019165 
	C655.170959,1457.995117 648.036011,1457.927002 640.901001,1457.871948 
	C640.741882,1457.870728 640.555420,1457.715210 640.428589,1457.761108 
	C632.872803,1460.499146 625.257080,1457.548096 617.648865,1457.953003 
	C609.730347,1458.374390 601.757996,1457.767822 593.808411,1457.674316 
	C593.449463,1457.670044 593.083191,1458.292480 592.035767,1458.778442 
	C590.913696,1458.957520 590.476196,1458.981445 590.038696,1459.005249 
	C589.052063,1458.651489 588.067444,1457.996216 587.078491,1457.989624 
	C573.994324,1457.901855 560.909607,1457.886841 547.825195,1457.926147 
	C546.922485,1457.928833 546.021545,1458.506592 544.453735,1458.924438 
	C543.565491,1459.015259 543.343140,1458.998657 543.120728,1458.982056 
	C538.071960,1458.578613 533.023254,1458.175049 527.554504,1457.399414 
	C526.791321,1455.936279 526.448120,1454.845215 526.104858,1453.754028 
	C531.565552,1453.650513 537.215576,1454.394165 542.438416,1453.226685 
	C548.785278,1451.807861 554.772339,1453.962402 560.980957,1453.448120 
	C567.328491,1452.922241 573.880005,1454.362549 580.145630,1453.505249 
	C584.823730,1452.865234 589.926758,1455.172729 594.427002,1451.530396 
	C595.406006,1450.738037 598.456848,1452.950195 600.587158,1453.048340 
	C606.050110,1453.300293 611.532043,1453.141602 617.458496,1453.475342 
	C618.107117,1454.055054 618.303467,1454.306519 618.499878,1454.558105 
	C618.691589,1454.139038 618.883301,1453.719971 619.074951,1453.301025 
	C642.305908,1453.244629 665.536804,1453.192383 688.767761,1453.130371 
	C705.689514,1453.085327 722.611511,1453.062500 739.532715,1452.936523 
	C741.970032,1452.918457 744.403381,1452.376587 747.509155,1452.013916 
	C748.390930,1451.982422 748.602234,1452.014160 748.813477,1452.046021 
z"/>
<path fill="#F1F1F1" opacity="1.000000" stroke="none" 
	d="
M1406.968262,659.450256 
	C1400.380493,659.708313 1393.792847,659.966370 1386.677979,660.649048 
	C1385.934814,661.116028 1385.718994,661.158508 1385.503052,661.200928 
	C1384.620972,660.781250 1383.736694,659.991577 1382.857300,659.997009 
	C1368.569336,660.085876 1354.281860,660.274780 1339.994629,660.460571 
	C1339.918579,660.461548 1339.846313,660.739929 1340.048828,661.223145 
	C1340.325562,661.557556 1340.354614,661.480408 1340.354614,661.480408 
	C1325.906372,660.996521 1311.458252,660.512634 1296.241943,660.046753 
	C1294.962402,660.389221 1294.450928,660.713623 1293.939575,661.038025 
	C1290.540649,660.635864 1287.144531,659.917419 1283.742188,659.885376 
	C1267.639893,659.734070 1251.535889,659.769897 1235.432495,659.745911 
	C1235.273926,659.745667 1235.110596,659.828186 1234.957031,659.890625 
	C1227.751465,662.818298 1220.503784,659.462524 1213.223511,660.002808 
	C1205.478516,660.577637 1197.639771,659.795837 1189.844604,659.872192 
	C1188.479492,659.885559 1187.127319,661.209351 1185.465942,661.621582 
	C1184.798218,660.866882 1184.433716,660.418457 1184.069092,659.970093 
	C1170.708984,659.943237 1157.348633,659.885742 1143.988770,659.935730 
	C1142.614502,659.940857 1141.242432,660.587952 1139.455444,660.828735 
	C1138.382080,660.387207 1137.722534,660.054138 1137.063110,659.721130 
	C1132.365479,659.739136 1127.667969,659.757141 1122.540161,659.400635 
	C1121.773071,657.931580 1121.436157,656.836914 1121.099243,655.742310 
	C1127.697266,655.571411 1134.295166,655.400574 1141.422729,654.992676 
	C1142.302002,654.509827 1142.651855,654.264038 1143.001709,654.018188 
	C1144.872925,654.473083 1146.740234,655.298828 1148.616089,655.318726 
	C1156.756226,655.405151 1164.898804,655.256531 1173.505493,655.668396 
	C1174.987671,655.957581 1176.004761,655.771729 1177.021973,655.585938 
	C1180.418091,655.443237 1183.814209,655.300598 1187.873291,655.468079 
	C1189.110474,655.126526 1189.684692,654.474915 1190.258789,653.823242 
	C1191.802368,654.257751 1193.342651,655.054626 1194.890137,655.068970 
	C1206.341309,655.175781 1217.794312,655.159058 1229.245850,655.077393 
	C1230.398682,655.069214 1231.546509,654.371826 1232.640381,654.012756 
	C1236.740967,654.466736 1241.201660,655.346619 1245.669800,655.385559 
	C1261.411011,655.523010 1277.156128,655.459290 1292.895996,655.226318 
	C1295.006104,655.195129 1297.095337,653.755737 1299.602051,652.976562 
	C1300.009888,652.984680 1299.945435,652.997070 1299.945435,652.997070 
	C1301.093628,653.655457 1302.233643,654.868652 1303.391113,654.885376 
	C1313.691040,655.034607 1323.994019,655.005310 1334.295654,654.946899 
	C1336.600464,654.933838 1338.903320,654.600037 1341.893677,654.257202 
	C1342.966553,654.087402 1343.352783,654.074280 1343.739136,654.061157 
	C1344.721680,654.477295 1345.701172,655.247559 1346.687256,655.255920 
	C1359.623413,655.366455 1372.560669,655.390442 1385.497437,655.354675 
	C1386.399536,655.352234 1387.299683,654.707947 1388.767944,654.443359 
	C1389.676392,654.674255 1390.017822,654.823914 1390.359131,654.973572 
	C1395.606567,655.194763 1400.854126,655.415894 1406.541870,656.144653 
	C1406.977539,657.584900 1406.972900,658.517578 1406.968262,659.450256 
z"/>
<path fill="#D3D3D3" opacity="1.000000" stroke="none" 
	d="
M1120.655762,655.562134 
	C1121.436157,656.836914 1121.773071,657.931580 1122.084106,659.317505 
	C1114.917358,659.656311 1107.753784,660.074524 1100.642334,659.640381 
	C1094.356934,659.256714 1088.921387,660.497803 1084.351318,664.867981 
	C1085.640869,663.456726 1086.930542,662.045471 1089.073120,659.700806 
	C1073.203857,659.700806 1058.677734,659.637207 1044.154297,659.800049 
	C1042.713623,659.816284 1041.288330,661.214783 1039.465088,661.996521 
	C1039.074219,662.021240 1039.119629,662.021423 1039.119629,662.021423 
	C1039.630615,658.901917 1037.301025,659.666260 1035.729614,659.645386 
	C1019.657288,659.431946 1003.582947,659.345337 987.511963,659.064087 
	C971.752258,658.788452 955.995728,658.331604 940.238159,657.935913 
	C939.654541,657.921326 939.075745,657.713074 938.551758,656.798462 
	C954.068176,656.798462 969.585632,656.912903 985.100708,656.768188 
	C1002.630371,656.604675 1020.158203,656.225037 1037.684204,655.822876 
	C1038.152466,655.812134 1038.589722,654.460571 1038.992432,653.350891 
	C1038.943237,652.967529 1038.888916,653.024048 1038.888916,653.024048 
	C1044.356934,656.954407 1050.675537,655.897461 1056.754272,655.939331 
	C1066.030151,656.003357 1075.309082,655.877075 1084.582642,655.656128 
	C1085.822144,655.626587 1087.036987,654.572937 1088.469238,653.488892 
	C1088.866943,652.951599 1089.058960,652.919006 1089.251099,652.886353 
	C1091.973633,653.697388 1094.670166,655.085144 1097.423584,655.208984 
	C1105.007080,655.549805 1112.614258,655.361145 1120.655762,655.562134 
z"/>
<path fill="#D3D3D3" opacity="1.000000" stroke="none" 
	d="
M525.662598,1453.568970 
	C526.448120,1454.845215 526.791321,1455.936279 527.098022,1457.318115 
	C519.317505,1457.652344 511.560455,1457.985474 503.834167,1457.636841 
	C498.750244,1457.407349 494.519989,1458.569702 490.905212,1462.545898 
	C490.871704,1462.957886 490.807281,1462.989380 490.807251,1462.989380 
	C491.659424,1461.432861 492.511627,1459.876465 493.712524,1457.683228 
	C478.529816,1457.683228 464.284424,1457.308472 450.083771,1457.939575 
	C446.406494,1458.103027 442.869263,1461.417969 439.160339,1463.648926 
	C439.052948,1464.012573 439.083527,1464.012573 439.083557,1464.012573 
	C440.999268,1462.343506 442.914948,1460.674438 444.830658,1459.005371 
	C444.571838,1458.217407 444.313019,1457.429321 444.054230,1456.641357 
	C423.267426,1456.641357 402.480652,1456.641357 381.344971,1456.229492 
	C381.018219,1455.405762 381.040344,1454.993774 381.062469,1454.581909 
	C398.517059,1454.378784 415.971588,1454.173096 433.426239,1453.975098 
	C436.717834,1453.937744 440.013031,1453.991577 443.296417,1453.814819 
	C443.614594,1453.797729 443.860687,1452.441772 444.036316,1451.327515 
	C443.932343,1450.947754 443.870575,1450.996704 443.870575,1450.996704 
	C449.861847,1455.070435 456.665802,1453.860107 463.250916,1453.911621 
	C473.186951,1453.989136 483.124054,1453.931885 494.439056,1453.931885 
	C492.971802,1452.112671 492.296936,1451.275879 491.204041,1450.379150 
	C490.786041,1450.319214 490.768707,1450.393433 490.768707,1450.393433 
	C501.922424,1455.194092 513.709534,1452.698120 525.662598,1453.568970 
z"/>
<path fill="#E6E6E6" opacity="1.000000" stroke="none" 
	d="
M813.399292,1457.529785 
	C812.638245,1456.423218 812.326965,1455.472656 811.997437,1454.219971 
	C820.614685,1453.858154 829.253418,1453.913086 837.883850,1453.670532 
	C840.540161,1453.596069 843.173767,1452.709595 845.986328,1452.162109 
	C846.828918,1452.549561 848.144592,1453.671509 849.471436,1453.684692 
	C862.612915,1453.816528 875.784180,1454.294189 888.890442,1453.602173 
	C899.886047,1453.021606 910.759583,1454.431763 921.716003,1454.206543 
	C933.190125,1453.970825 944.684875,1454.435547 956.162231,1454.834351 
	C959.876038,1454.963257 963.563416,1455.851196 966.772400,1456.320312 
	C941.684509,1456.320312 916.115967,1456.320312 890.433350,1456.320312 
	C890.575134,1458.032349 890.646057,1458.888672 890.759521,1460.258911 
	C884.100342,1455.010498 876.723022,1458.067871 869.294434,1456.766846 
	C868.165527,1456.551147 867.585876,1456.761719 867.006226,1456.972168 
	C860.100281,1457.139404 853.193176,1457.269531 846.289429,1457.501831 
	C844.722839,1457.554443 843.168213,1457.961060 841.168579,1458.596680 
	C840.439392,1459.018677 840.149719,1459.048950 839.860046,1459.079102 
	C834.154541,1458.528687 828.456970,1457.858276 822.740173,1457.477295 
	C819.794128,1457.281006 816.813843,1457.599731 813.399292,1457.529785 
z"/>
<path fill="#E6E6E6" opacity="1.000000" stroke="none" 
	d="
M1407.424072,659.575928 
	C1406.972900,658.517578 1406.977539,657.584900 1406.985352,656.302368 
	C1414.212402,655.873840 1421.443848,655.966614 1428.657227,655.650269 
	C1432.796753,655.468628 1436.907349,654.623230 1440.677246,654.671387 
	C1440.625610,655.471436 1440.927612,655.676697 1441.229614,655.882019 
	C1454.480469,655.843872 1467.732178,655.881165 1480.981201,655.707031 
	C1483.801514,655.669983 1486.611694,654.863342 1489.411621,654.413635 
	C1490.985229,654.842590 1492.752563,655.715576 1494.534912,655.747498 
	C1507.371094,655.977722 1520.210449,656.037415 1533.486572,656.518799 
	C1533.935791,657.439819 1533.947388,657.993225 1533.958862,658.546570 
	C1522.215332,658.700012 1510.471924,658.863159 1498.728149,659.001831 
	C1494.649536,659.049988 1490.568359,658.994934 1486.494507,659.148682 
	C1486.224365,659.158875 1486.006348,660.545715 1485.997803,661.625610 
	C1486.231445,661.959106 1486.298462,661.913025 1486.298462,661.913025 
	C1479.315796,657.288879 1471.406372,659.263367 1463.885986,659.004456 
	C1455.955811,658.731567 1447.994019,659.240173 1440.052368,659.562622 
	C1438.562622,659.623230 1437.102661,660.415344 1435.279541,660.977600 
	C1426.709473,657.969421 1417.201172,660.158569 1407.424072,659.575928 
z"/>
<path fill="#C5C5C5" opacity="1.000000" stroke="none" 
	d="
M1089.081177,652.591553 
	C1089.058960,652.919006 1088.866943,652.951599 1088.382812,652.980774 
	C1084.880371,650.471191 1081.572998,648.078735 1078.478149,645.437439 
	C1069.676025,637.925232 1060.960449,630.311401 1052.210938,622.737610 
	C1052.561646,622.320984 1052.912231,621.904358 1053.262939,621.487732 
	C1065.145752,631.757385 1077.028442,642.027039 1089.081177,652.591553 
z"/>
<path fill="#BEBEBE" opacity="1.000000" stroke="none" 
	d="
M602.179321,1419.675293 
	C614.049072,1429.805664 625.918823,1439.935913 637.788635,1450.066284 
	C637.418274,1450.518677 637.047974,1450.971069 636.677612,1451.423462 
	C634.404053,1449.511841 632.101807,1447.633179 629.862000,1445.682617 
	C621.397278,1438.311157 612.936646,1430.934692 604.520874,1423.507568 
	C603.430054,1422.544800 602.610413,1421.274780 601.929932,1419.882324 
	C602.194641,1419.617554 602.179321,1419.675293 602.179321,1419.675293 
z"/>
<path fill="#BEBEBE" opacity="1.000000" stroke="none" 
	d="
M589.749451,1459.179321 
	C590.476196,1458.981445 590.913696,1458.957520 591.678345,1458.968262 
	C580.723267,1468.756104 569.441101,1478.509277 557.718384,1488.267578 
	C557.156677,1488.153442 557.035583,1488.034546 556.914551,1487.915527 
	C567.763062,1478.394775 578.611633,1468.874023 589.749451,1459.179321 
z"/>
<path fill="#D3D3D3" opacity="1.000000" stroke="none" 
	d="
M1137.370117,660.019897 
	C1137.722534,660.054138 1138.382080,660.387207 1139.074463,661.030518 
	C1128.585205,670.675354 1118.062866,680.009766 1107.540649,689.344177 
	C1107.208374,688.973145 1106.876221,688.602051 1106.544067,688.231018 
	C1112.696533,682.757812 1118.862061,677.299377 1124.996704,671.806335 
	C1129.245605,668.001831 1133.451782,664.149597 1137.370117,660.019897 
z"/>
<path fill="#BEBEBE" opacity="1.000000" stroke="none" 
	d="
M543.072632,1460.119141 
	C535.463806,1466.980469 527.883423,1473.873657 520.231750,1480.686646 
	C517.329163,1483.270996 514.261963,1485.670288 511.269745,1488.153809 
	C510.938019,1487.760254 510.606262,1487.366699 510.274506,1486.973145 
	C520.887756,1477.992798 531.500977,1469.012329 542.550415,1459.983154 
	C542.986572,1459.934326 543.072632,1460.119263 543.072632,1460.119141 
z"/>
<path fill="#C5C5C5" opacity="1.000000" stroke="none" 
	d="
M1444.184082,652.130432 
	C1444.448120,651.344971 1444.473511,650.290222 1445.011230,649.813843 
	C1455.502075,640.520020 1466.051025,631.291687 1476.607178,622.071899 
	C1476.775513,621.924866 1477.184448,622.053406 1478.958618,622.053406 
	C1468.758667,630.443115 1459.397705,638.090698 1450.107788,645.823792 
	C1448.024780,647.557800 1446.190430,649.590759 1444.173584,651.811401 
	C1444.105835,652.136719 1444.184082,652.130432 1444.184082,652.130432 
z"/>
<path fill="#D3D3D3" opacity="1.000000" stroke="none" 
	d="
M1534.321045,658.723755 
	C1533.947388,657.993225 1533.935791,657.439819 1533.944824,656.610229 
	C1547.342896,656.333923 1560.720337,656.333923 1574.097900,656.333923 
	C1574.102295,656.971985 1574.106689,657.609985 1574.111084,658.248047 
	C1567.970581,658.248047 1561.828491,658.163818 1555.689819,658.270325 
	C1548.686157,658.391846 1541.685425,658.683289 1534.321045,658.723755 
z"/>
<path fill="#C5C5C5" opacity="1.000000" stroke="none" 
	d="
M820.956909,1486.025635 
	C813.456787,1479.403442 806.248230,1472.985596 799.039673,1466.567749 
	C799.241638,1466.336548 799.443665,1466.105225 799.645630,1465.874023 
	C801.919922,1467.664307 804.264221,1469.373291 806.455566,1471.259888 
	C813.772034,1477.558838 821.033630,1483.921387 828.316223,1490.259521 
	C828.049316,1490.600708 827.782410,1490.941772 827.515564,1491.282837 
	C825.426514,1489.598633 823.337524,1487.914429 820.956909,1486.025635 
z"/>
<path fill="#BEBEBE" opacity="1.000000" stroke="none" 
	d="
M749.047607,1451.079346 
	C753.728210,1446.582520 758.285278,1441.947510 763.121765,1437.625244 
	C768.703369,1432.637207 774.531433,1427.924927 780.745483,1423.181274 
	C781.358276,1423.387329 781.478027,1423.505249 781.597778,1423.623169 
	C771.545532,1432.482422 761.498901,1441.348022 751.422485,1450.179688 
	C750.974670,1450.572266 750.256104,1450.655884 749.335571,1450.950195 
	C749.007507,1451.016968 749.047607,1451.079346 749.047607,1451.079346 
z"/>
<path fill="#D3D3D3" opacity="1.000000" stroke="none" 
	d="
M479.602112,1437.419434 
	C482.121826,1440.038696 484.379974,1442.418457 486.638153,1444.798218 
	C486.537628,1444.932739 486.437103,1445.067261 486.336578,1445.201782 
	C477.239380,1437.643677 468.142181,1430.085571 459.044952,1422.527466 
	C459.349915,1422.121216 459.654846,1421.714844 459.959778,1421.308594 
	C466.420074,1426.599121 472.880341,1431.889526 479.602112,1437.419434 
z"/>
<path fill="#C5C5C5" opacity="1.000000" stroke="none" 
	d="
M1464.169312,686.354187 
	C1454.692505,678.546387 1445.514038,670.849670 1436.335571,663.152954 
	C1436.770020,662.641113 1437.204468,662.129272 1437.638794,661.617432 
	C1447.416138,670.276123 1457.193359,678.934814 1466.970703,687.593567 
	C1466.825684,687.766479 1466.680542,687.939392 1466.535522,688.112305 
	C1465.846191,687.563293 1465.156982,687.014282 1464.169312,686.354187 
z"/>
<path fill="#C5C5C5" opacity="1.000000" stroke="none" 
	d="
M730.055908,1428.220215 
	C731.142944,1427.365234 731.990295,1426.744873 732.837646,1426.124390 
	C733.152710,1426.504150 733.467773,1426.883911 733.782837,1427.263672 
	C724.732422,1435.161743 715.682007,1443.059937 706.631592,1450.958130 
	C706.262634,1450.544067 705.893738,1450.130005 705.524841,1449.715942 
	C713.621948,1442.628906 721.719116,1435.541870 730.055908,1428.220215 
z"/>
<path fill="#BEBEBE" opacity="1.000000" stroke="none" 
	d="
M1184.347168,660.269653 
	C1184.433716,660.418457 1184.798218,660.866882 1185.080933,661.653931 
	C1175.818848,670.375122 1166.638550,678.757629 1157.458374,687.140076 
	C1157.070068,686.719360 1156.681763,686.298584 1156.293457,685.877869 
	C1165.737427,677.441589 1175.181274,669.005371 1184.347168,660.269653 
z"/>
<path fill="#C5C5C5" opacity="1.000000" stroke="none" 
	d="
M1060.154541,685.190796 
	C1066.615356,679.529968 1072.777832,674.066284 1078.940308,668.602661 
	C1079.302490,669.016785 1079.664673,669.430969 1080.026855,669.845093 
	C1070.942505,677.680603 1061.858032,685.516052 1052.773560,693.351501 
	C1052.456421,692.987854 1052.139282,692.624207 1051.822266,692.260559 
	C1054.500244,689.969727 1057.178223,687.678833 1060.154541,685.190796 
z"/>
<path fill="#BEBEBE" opacity="1.000000" stroke="none" 
	d="
M380.662628,1454.438477 
	C381.040344,1454.993774 381.018219,1455.405762 380.942627,1456.123047 
	C368.411530,1456.428589 355.933899,1456.428589 343.456268,1456.428589 
	C343.466858,1456.140625 343.477417,1455.852661 343.488007,1455.564819 
	C355.746277,1455.141602 368.004517,1454.718262 380.662628,1454.438477 
z"/>
<path fill="#C5C5C5" opacity="1.000000" stroke="none" 
	d="
M1332.541992,692.675781 
	C1331.378540,692.403381 1329.912964,692.489258 1329.098877,691.802612 
	C1321.627563,685.501404 1314.269287,679.066345 1307.239136,672.319214 
	C1307.786621,671.956482 1307.973145,671.944763 1308.159668,671.932983 
	C1309.743652,673.236328 1311.358398,674.504150 1312.906128,675.849182 
	C1319.238159,681.351929 1325.549805,686.878357 1332.181641,692.548706 
	C1332.494385,692.701355 1332.541992,692.675781 1332.541992,692.675781 
z"/>
<path fill="#C5C5C5" opacity="1.000000" stroke="none" 
	d="
M1107.603271,623.304871 
	C1116.369751,630.499207 1125.304810,637.506470 1132.378784,646.619385 
	C1123.965820,639.326050 1115.552856,632.032715 1107.199341,624.231262 
	C1107.373657,623.583740 1107.488403,623.444336 1107.603271,623.304871 
z"/>
<path fill="#C5C5C5" opacity="1.000000" stroke="none" 
	d="
M583.330811,1443.435547 
	C575.300476,1436.236084 567.368286,1429.247437 558.842651,1421.735962 
	C560.201965,1422.022705 561.016663,1421.952637 561.462097,1422.324829 
	C568.056396,1427.830811 574.654541,1433.335205 581.107361,1439.004395 
	C582.203918,1439.968018 582.629028,1441.697021 583.359619,1443.074829 
	C583.495850,1443.331665 583.609314,1443.600464 583.733276,1443.863770 
	C583.631897,1443.791260 583.530518,1443.718750 583.330811,1443.435547 
z"/>
<path fill="#C5C5C5" opacity="1.000000" stroke="none" 
	d="
M925.540405,1490.442017 
	C918.155273,1484.331787 910.724670,1478.274658 903.448059,1472.037964 
	C902.623962,1471.331421 902.666382,1469.614014 902.388428,1468.648560 
	C910.237305,1475.557373 918.050232,1482.434570 925.824951,1489.756470 
	C925.786804,1490.201172 925.540405,1490.442017 925.540405,1490.442017 
z"/>
<path fill="#C5C5C5" opacity="1.000000" stroke="none" 
	d="
M622.940369,1469.006714 
	C622.195740,1470.215088 621.690552,1471.699463 620.667542,1472.586914 
	C614.168091,1478.225586 607.566711,1483.747070 600.959045,1489.259277 
	C600.305481,1489.804565 599.383057,1490.027344 597.922241,1489.513306 
	C606.107605,1482.854248 614.292969,1476.195190 622.724121,1469.272095 
	C622.969849,1469.008057 622.940369,1469.006714 622.940369,1469.006714 
z"/>
<path fill="#C5C5C5" opacity="1.000000" stroke="none" 
	d="
M433.625793,1442.181152 
	C425.474152,1435.336426 417.322510,1428.491699 409.064819,1421.340088 
	C408.958832,1421.033325 408.902466,1421.073364 408.902466,1421.073242 
	C409.148132,1420.912109 409.554779,1420.563110 409.616760,1420.616211 
	C417.671051,1427.520020 425.700165,1434.452881 433.773987,1441.740356 
	C433.817505,1442.096191 433.625763,1442.181152 433.625793,1442.181152 
z"/>
<path fill="#C5C5C5" opacity="1.000000" stroke="none" 
	d="
M1198.058716,622.929504 
	C1206.339478,629.802551 1214.620361,636.675537 1222.901123,643.548523 
	C1222.494263,644.007935 1222.087524,644.467346 1221.680664,644.926758 
	C1213.746704,637.988770 1205.812744,631.050720 1197.829834,623.686829 
	C1197.780884,623.260925 1198.058716,622.929504 1198.058716,622.929504 
z"/>
<path fill="#BEBEBE" opacity="1.000000" stroke="none" 
	d="
M1523.130493,625.567017 
	C1515.683105,632.048462 1508.435059,638.296570 1501.187012,644.544678 
	C1500.833130,644.134888 1500.479370,643.725159 1500.125488,643.315369 
	C1507.985474,636.624207 1515.845459,629.933044 1523.705444,623.241821 
	C1523.951416,623.502014 1524.197388,623.762207 1524.443359,624.022400 
	C1524.072144,624.459473 1523.700928,624.896606 1523.130493,625.567017 
z"/>
<path fill="#C5C5C5" opacity="1.000000" stroke="none" 
	d="
M878.540588,1490.668823 
	C877.375610,1490.401245 875.905945,1490.494995 875.093140,1489.809570 
	C867.618042,1483.506836 860.256775,1477.069092 853.228516,1470.320068 
	C853.781189,1469.958130 853.967712,1469.946655 854.154175,1469.935181 
	C862.059998,1476.758667 869.965881,1483.582153 878.180969,1490.550171 
	C878.490173,1490.694702 878.540588,1490.668823 878.540588,1490.668823 
z"/>
<path fill="#BEBEBE" opacity="1.000000" stroke="none" 
	d="
M1165.699097,634.262939 
	C1162.079712,631.058350 1158.729736,628.086914 1155.379883,625.115417 
	C1155.680420,624.808472 1155.980835,624.501465 1156.281372,624.194458 
	C1163.920532,631.251465 1172.971558,636.808167 1178.831421,645.743164 
	C1174.543823,641.994141 1170.256226,638.245117 1165.699097,634.262939 
z"/>
<path fill="#C5C5C5" opacity="1.000000" stroke="none" 
	d="
M860.001099,1440.624268 
	C858.944214,1441.207886 858.095398,1441.561035 857.246582,1441.914185 
	C857.078003,1441.675171 856.909424,1441.436279 856.740845,1441.197266 
	C864.688477,1434.352417 872.636169,1427.507568 880.583801,1420.662720 
	C880.917664,1421.043091 881.251465,1421.423584 881.585266,1421.804077 
	C874.459900,1428.000732 867.334534,1434.197388 860.001099,1440.624268 
z"/>
<path fill="#C5C5C5" opacity="1.000000" stroke="none" 
	d="
M510.930481,1421.052490 
	C511.854492,1421.365845 512.974792,1421.444824 513.672180,1422.028931 
	C520.513123,1427.758423 527.290100,1433.564575 534.061401,1439.376709 
	C534.591431,1439.831543 534.942383,1440.494995 535.376526,1441.061646 
	C535.079407,1441.373657 534.782288,1441.685791 534.485168,1441.997925 
	C526.714844,1435.215942 518.944519,1428.433838 511.070923,1421.338623 
	C510.967651,1421.025269 510.930481,1421.052490 510.930481,1421.052490 
z"/>
<path fill="#BEBEBE" opacity="1.000000" stroke="none" 
	d="
M904.854858,1443.999390 
	C910.309204,1434.516357 920.052185,1429.726807 927.450928,1422.371704 
	C927.832886,1422.805664 928.214783,1423.239624 928.596741,1423.673584 
	C920.719116,1430.178711 912.841492,1436.683838 904.936340,1443.582520 
	C904.908813,1443.976196 904.854858,1443.999390 904.854858,1443.999390 
z"/>
<path fill="#C5C5C5" opacity="1.000000" stroke="none" 
	d="
M1498.220093,671.902466 
	C1505.718384,678.309509 1513.216797,684.716553 1520.715088,691.123596 
	C1520.384277,691.520447 1520.053467,691.917358 1519.722656,692.314209 
	C1512.084473,685.783569 1504.446167,679.252930 1497.186768,672.341064 
	C1497.783691,671.940796 1498.001831,671.921631 1498.220093,671.902466 
z"/>
<path fill="#C5C5C5" opacity="1.000000" stroke="none" 
	d="
M1005.603577,623.329041 
	C1013.347412,629.811829 1021.091309,636.294556 1028.835205,642.777344 
	C1028.426025,643.250671 1028.016846,643.724060 1027.607544,644.197388 
	C1020.116943,637.712402 1012.626343,631.227478 1005.195984,624.238770 
	C1005.372070,623.599609 1005.487793,623.464294 1005.603577,623.329041 
z"/>
<path fill="#BEBEBE" opacity="1.000000" stroke="none" 
	d="
M828.585999,1423.618408 
	C821.679382,1429.702515 814.772766,1435.786499 807.866150,1441.870605 
	C807.476624,1441.434570 807.087097,1440.998413 806.697571,1440.562378 
	C813.547852,1434.737671 820.398071,1428.912842 827.739990,1423.175903 
	C828.349854,1423.381958 828.467896,1423.500122 828.585999,1423.618408 
z"/>
<path fill="#C5C5C5" opacity="1.000000" stroke="none" 
	d="
M1404.139282,642.496704 
	C1403.425781,642.980835 1402.976440,643.185608 1402.526978,643.390381 
	C1402.643555,642.750061 1402.529053,641.850037 1402.912109,641.509216 
	C1407.351440,637.560364 1411.847534,633.674377 1416.370361,629.820801 
	C1417.974976,628.453674 1419.692871,627.219788 1422.123779,626.792297 
	C1416.216919,631.934021 1410.310181,637.075745 1404.139282,642.496704 
z"/>
<path fill="#C5C5C5" opacity="1.000000" stroke="none" 
	d="
M1354.962280,642.930298 
	C1361.364136,637.128052 1367.766113,631.325867 1374.168091,625.523621 
	C1374.552246,625.968445 1374.936401,626.413269 1375.320557,626.858032 
	C1368.716553,632.386047 1362.112671,637.914062 1355.233398,643.177185 
	C1354.958008,642.912292 1354.962280,642.930298 1354.962280,642.930298 
z"/>
<path fill="#BEBEBE" opacity="1.000000" stroke="none" 
	d="
M1022.342346,675.445557 
	C1024.170654,673.932251 1025.736816,672.654541 1027.302979,671.376770 
	C1027.617432,671.773560 1027.931763,672.170410 1028.246094,672.567200 
	C1021.928162,677.929321 1015.610229,683.291504 1009.292297,688.653625 
	C1008.983032,688.303894 1008.673767,687.954224 1008.364502,687.604492 
	C1012.936401,683.630005 1017.508240,679.655518 1022.342346,675.445557 
z"/>
<path fill="#C5C5C5" opacity="1.000000" stroke="none" 
	d="
M421.116028,1481.064697 
	C418.336761,1483.349365 415.843445,1485.423706 413.350159,1487.498169 
	C413.066833,1487.161499 412.783508,1486.824829 412.500183,1486.488159 
	C419.035919,1480.840210 425.571625,1475.192383 432.107361,1469.544556 
	C432.451172,1469.937500 432.794952,1470.330444 433.138733,1470.723389 
	C429.226501,1474.100464 425.314270,1477.477539 421.116028,1481.064697 
z"/>
<path fill="#D3D3D3" opacity="1.000000" stroke="none" 
	d="
M768.984863,1482.000244 
	C764.348083,1477.783691 759.989502,1473.793579 755.694580,1469.736084 
	C755.349121,1469.409668 755.441895,1468.619385 755.357300,1468.181152 
	C755.694580,1467.877319 755.876953,1467.700806 755.884399,1467.707886 
	C761.303528,1472.879028 766.710632,1478.062256 771.770752,1483.812378 
	C770.940308,1483.277954 770.109863,1482.743652 768.984863,1482.000244 
z"/>
<path fill="#C5C5C5" opacity="1.000000" stroke="none" 
	d="
M467.173889,1481.297607 
	C473.194153,1476.330933 478.950409,1471.614258 484.706665,1466.897583 
	C484.882477,1467.105103 485.058289,1467.312622 485.234100,1467.520264 
	C480.743896,1471.553101 476.286560,1475.623535 471.744629,1479.597168 
	C470.282837,1480.876099 468.598267,1481.900513 467.015625,1483.041382 
	C466.980377,1482.543457 466.945160,1482.045532 467.173889,1481.297607 
z"/>
<path fill="#C5C5C5" opacity="1.000000" stroke="none" 
	d="
M1300.000366,653.015137 
	C1306.545532,647.609985 1313.100342,642.174377 1319.782349,636.346130 
	C1319.909546,635.953491 1319.850342,635.937561 1319.850342,635.937561 
	C1313.408569,641.479980 1306.966919,647.022339 1300.235352,652.780884 
	C1299.945435,652.997070 1300.009888,652.984680 1300.000366,653.015137 
z"/>
<path fill="#C5C5C5" opacity="1.000000" stroke="none" 
	d="
M1362.420776,682.780457 
	C1359.282104,680.143311 1356.005981,677.648315 1353.065552,674.806030 
	C1351.696045,673.482178 1350.977417,671.484924 1349.797974,669.515930 
	C1354.378174,673.614319 1358.623291,677.412903 1362.822998,681.746399 
	C1362.658691,682.447693 1362.539795,682.614075 1362.420776,682.780457 
z"/>
<path fill="#BEBEBE" opacity="1.000000" stroke="none" 
	d="
M1307.989502,671.646118 
	C1307.973145,671.944763 1307.786621,671.956482 1307.320068,671.978638 
	C1303.251587,668.840698 1299.463257,665.692444 1295.846680,662.253418 
	C1296.018677,661.962708 1295.970825,662.023438 1295.970825,662.023438 
	C1299.920288,665.135315 1303.869751,668.247253 1307.989502,671.646118 
z"/>
<path fill="#BEBEBE" opacity="1.000000" stroke="none" 
	d="
M1498.049927,671.607910 
	C1498.001831,671.921631 1497.783691,671.940796 1497.238892,671.994019 
	C1493.161255,668.819885 1489.410400,665.611572 1485.979004,662.158142 
	C1486.298462,661.913025 1486.231445,661.959106 1486.200317,661.975342 
	C1490.072754,665.098816 1493.976318,668.206116 1498.049927,671.607910 
z"/>
<path fill="#BEBEBE" opacity="1.000000" stroke="none" 
	d="
M853.961792,1469.655518 
	C853.967712,1469.946655 853.781189,1469.958130 853.314697,1469.979980 
	C849.282837,1466.858032 845.531067,1463.725586 841.893433,1460.285645 
	C842.007690,1459.978027 841.955139,1460.032104 841.955139,1460.032104 
	C845.893250,1463.146606 849.831360,1466.261108 853.961792,1469.655518 
z"/>
<path fill="#C5C5C5" opacity="1.000000" stroke="none" 
	d="
M433.910278,1442.047363 
	C437.449585,1444.807373 440.896088,1447.616089 444.106567,1450.710693 
	C443.870575,1450.996704 443.932343,1450.947754 443.970917,1450.940918 
	C440.521698,1448.232300 437.033905,1445.530396 433.585938,1442.504883 
	C433.625763,1442.181152 433.817505,1442.096191 433.910278,1442.047363 
z"/>
<path fill="#BEBEBE" opacity="1.000000" stroke="none" 
	d="
M1038.982300,652.964233 
	C1035.352295,650.380798 1031.683350,647.800720 1028.014282,645.220703 
	C1028.426758,644.709045 1028.839111,644.197449 1029.251465,643.685791 
	C1032.577026,646.587646 1035.902466,649.489441 1039.058472,652.707642 
	C1038.888916,653.024048 1038.943237,652.967529 1038.982300,652.964233 
z"/>
<path fill="#BEBEBE" opacity="1.000000" stroke="none" 
	d="
M1353.875366,643.989502 
	C1350.816528,646.960876 1347.757690,649.932251 1344.356934,652.964050 
	C1344.014893,653.024475 1344.031982,653.058044 1344.031982,653.058105 
	C1347.100342,650.037170 1350.168579,647.016235 1353.568848,643.997559 
	C1353.900757,643.999878 1353.875366,643.989502 1353.875366,643.989502 
z"/>
<path fill="#E6E6E6" opacity="1.000000" stroke="none" 
	d="
M790.271729,1459.236572 
	C790.916992,1458.405884 791.722839,1457.858032 792.714111,1457.498291 
	C790.005981,1461.814697 794.815430,1461.121948 795.789246,1462.494385 
	C794.177734,1461.599365 792.304993,1460.559326 790.271729,1459.236572 
z"/>
<path fill="#E6E6E6" opacity="1.000000" stroke="none" 
	d="
M1385.697510,661.492065 
	C1385.718994,661.158508 1385.934814,661.116028 1386.480469,661.057922 
	C1388.493164,662.624756 1390.176270,664.207214 1391.229370,665.197449 
	C1389.947876,664.377747 1387.919800,663.080505 1385.697510,661.492065 
z"/>
<path fill="#C5C5C5" opacity="1.000000" stroke="none" 
	d="
M1362.972900,682.044800 
	C1364.673340,683.070496 1366.178467,684.332825 1367.952148,685.820312 
	C1366.971069,686.345154 1366.846069,686.444458 1366.818237,686.422241 
	C1365.491333,685.361084 1364.172852,684.289307 1362.637085,682.999634 
	C1362.539795,682.614075 1362.658691,682.447693 1362.972900,682.044800 
z"/>
<path fill="#C5C5C5" opacity="1.000000" stroke="none" 
	d="
M623.967834,1467.927612 
	C625.417175,1467.039185 626.866516,1466.150879 628.315857,1465.262451 
	C628.424438,1465.542236 628.533020,1465.822021 628.641602,1466.101929 
	C627.188232,1466.450073 625.734802,1466.798340 624.122803,1467.526489 
	C623.964233,1467.906494 623.967834,1467.927612 623.967834,1467.927612 
z"/>
<path fill="#BEBEBE" opacity="1.000000" stroke="none" 
	d="
M1190.109863,653.528320 
	C1189.684692,654.474915 1189.110474,655.126526 1188.321167,655.612061 
	C1187.514893,654.030945 1186.923828,652.616089 1186.436035,651.448303 
	C1187.285400,651.878418 1188.623169,652.555847 1190.109863,653.528320 
z"/>
<path fill="#D3D3D3" opacity="1.000000" stroke="none" 
	d="
M542.306946,1447.998291 
	C543.270874,1448.424438 544.069153,1448.887939 545.146484,1449.513306 
	C543.952515,1448.926147 543.046875,1448.480835 542.306946,1447.998291 
z"/>
<path fill="#D3D3D3" opacity="1.000000" stroke="none" 
	d="
M1102.216187,693.093628 
	C1103.302246,691.686279 1104.388306,690.278931 1105.474487,688.871643 
	C1105.768311,689.199585 1106.062134,689.527527 1106.356079,689.855530 
	C1105.010254,690.683105 1103.664429,691.510681 1102.242676,692.712524 
	C1102.166748,693.086853 1102.216187,693.093628 1102.216187,693.093628 
z"/>
<path fill="#C5C5C5" opacity="1.000000" stroke="none" 
	d="
M1107.072021,623.919312 
	C1106.154053,623.539307 1105.423096,622.963196 1104.692017,622.387024 
	C1104.824463,622.183472 1104.956909,621.979919 1105.089355,621.776367 
	C1105.801758,622.167603 1106.514160,622.558777 1107.414917,623.127441 
	C1107.488403,623.444336 1107.373657,623.583740 1107.072021,623.919312 
z"/>
<path fill="#BEBEBE" opacity="1.000000" stroke="none" 
	d="
M507.072144,1491.033691 
	C507.912506,1489.987061 508.752869,1488.940552 509.593231,1487.894043 
	C509.802094,1488.184937 510.010956,1488.475952 510.219788,1488.766968 
	C509.248383,1489.257080 508.276978,1489.747192 507.157471,1490.613647 
	C507.009338,1490.989990 507.072174,1491.033691 507.072144,1491.033691 
z"/>
<path fill="#C5C5C5" opacity="1.000000" stroke="none" 
	d="
M1005.069824,623.926208 
	C1004.288452,623.616211 1003.693542,623.114990 1002.307190,621.946960 
	C1003.962158,622.531372 1004.593872,622.754456 1005.414612,623.153320 
	C1005.487793,623.464294 1005.372070,623.599609 1005.069824,623.926208 
z"/>
<path fill="#BEBEBE" opacity="1.000000" stroke="none" 
	d="
M557.446899,1488.462891 
	C556.496887,1489.199341 555.377686,1489.745361 554.142700,1490.646973 
	C554.026855,1491.002563 554.089966,1491.044800 554.089966,1491.044800 
	C554.828857,1490.063477 555.567688,1489.082153 556.610535,1488.008179 
	C557.035583,1488.034546 557.156677,1488.153442 557.446899,1488.462891 
z"/>
<path fill="#D3D3D3" opacity="1.000000" stroke="none" 
	d="
M1140.926392,653.096497 
	C1140.411743,652.697449 1139.897095,652.298401 1139.612915,652.078064 
	C1139.786987,652.309082 1140.074829,652.691101 1140.612793,653.117737 
	C1140.862915,653.162354 1140.926392,653.096497 1140.926392,653.096497 
z"/>
<path fill="#D3D3D3" opacity="1.000000" stroke="none" 
	d="
M1039.066772,662.001953 
	C1038.350098,662.746216 1037.640869,663.509888 1036.922119,664.623596 
	C1036.912598,664.973633 1036.863525,664.991638 1036.863525,664.991638 
	C1037.558472,664.214172 1038.253540,663.436768 1039.034058,662.340393 
	C1039.119629,662.021423 1039.074219,662.021240 1039.066772,662.001953 
z"/>
<path fill="#BEBEBE" opacity="1.000000" stroke="none" 
	d="
M1176.624146,655.607056 
	C1176.004761,655.771729 1174.987671,655.957581 1173.916992,655.886475 
	C1174.651245,655.629089 1175.438721,655.628662 1176.624146,655.607056 
z"/>
<path fill="#BEBEBE" opacity="1.000000" stroke="none" 
	d="
M867.195862,1457.048950 
	C867.585876,1456.761719 868.165527,1456.551147 868.852905,1456.590332 
	C868.435669,1456.935425 867.910583,1457.030518 867.195862,1457.048950 
z"/>
<path fill="#C5C5C5" opacity="1.000000" stroke="none" 
	d="
M463.818237,1484.698486 
	C463.982330,1484.508911 464.081390,1484.401123 464.180420,1484.293335 
	C464.037964,1484.455566 463.895569,1484.617920 463.818237,1484.698486 
z"/>
<path fill="#BEBEBE" opacity="1.000000" stroke="none" 
	d="
M506.987762,1490.958374 
	C506.734406,1491.276978 506.502625,1491.627197 506.270813,1491.977295 
	C506.198517,1491.873901 506.051514,1491.691895 506.065125,1491.678711 
	C506.267822,1491.486084 506.491699,1491.315552 506.891357,1491.086792 
	C507.072174,1491.033691 507.009338,1490.989990 506.987762,1490.958374 
z"/>
<path fill="#E6E6E6" opacity="1.000000" stroke="none" 
	d="
M803.871094,1453.677246 
	C803.452026,1454.019897 802.845215,1454.219360 802.100952,1454.158691 
	C802.536743,1453.777222 803.109985,1453.655762 803.871094,1453.677246 
z"/>
<path fill="#D3D3D3" opacity="1.000000" stroke="none" 
	d="
M488.092163,1464.146240 
	C487.961304,1464.141968 487.883881,1464.088013 487.806396,1464.034180 
	C487.919464,1464.054932 488.032501,1464.075684 488.092163,1464.146240 
z"/>
<path fill="#BEBEBE" opacity="1.000000" stroke="none" 
	d="
M784.152710,1421.212402 
	C784.441406,1420.872192 784.730164,1420.531860 785.490234,1419.636108 
	C784.621765,1420.249512 784.352417,1420.439697 784.094910,1420.886475 
	C784.106812,1421.142822 784.152710,1421.212402 784.152710,1421.212402 
z"/>
<path fill="#F1F1F1" opacity="1.000000" stroke="none" 
	d="
M1340.363281,661.542480 
	C1340.541016,661.911865 1340.681030,662.296326 1340.820923,662.680786 
	C1340.719971,662.406738 1340.619019,662.132629 1340.436401,661.669434 
	C1340.354614,661.480408 1340.325562,661.557556 1340.363281,661.542480 
z"/>
<path fill="#BEBEBE" opacity="1.000000" stroke="none" 
	d="
M831.155884,1421.214722 
	C831.388550,1420.848877 831.621277,1420.483032 831.854004,1420.117310 
	C831.718506,1420.179443 831.571411,1420.224731 831.450317,1420.307861 
	C831.315674,1420.400269 831.204468,1420.526978 831.096436,1420.892090 
	C831.109802,1421.145508 831.155884,1421.214722 831.155884,1421.214722 
z"/>
<path fill="#C5C5C5" opacity="1.000000" stroke="none" 
	d="
M1319.923828,635.980591 
	C1320.268555,635.597778 1320.598999,635.187866 1320.284546,635.578003 
	C1320.846436,635.275513 1320.523071,635.449585 1320.025146,635.780640 
	C1319.850342,635.937561 1319.909546,635.953491 1319.923828,635.980591 
z"/>
<path fill="#D3D3D3" opacity="1.000000" stroke="none" 
	d="
M439.044373,1464.010498 
	C438.710876,1464.149292 438.385956,1464.290161 438.061096,1464.430908 
	C438.384125,1464.409668 438.707123,1464.388306 439.056824,1464.189697 
	C439.083527,1464.012573 439.052948,1464.012573 439.044373,1464.010498 
z"/>
<path fill="#BEBEBE" opacity="1.000000" stroke="none" 
	d="
M1294.133301,661.350525 
	C1294.450928,660.713623 1294.962402,660.389221 1295.778442,660.053223 
	C1296.057373,660.477356 1296.031616,660.913025 1295.988403,661.686096 
	C1295.970825,662.023438 1296.018677,661.962708 1296.034668,661.927246 
	C1295.476196,661.815491 1294.901733,661.739258 1294.133301,661.350525 
z"/>
<path fill="#D3D3D3" opacity="1.000000" stroke="none" 
	d="
M1135.468872,648.775208 
	C1135.443237,648.805054 1135.494385,648.745361 1135.468872,648.775208 
z"/>
<path fill="#BEBEBE" opacity="1.000000" stroke="none" 
	d="
M840.030334,1459.398926 
	C840.149719,1459.048950 840.439392,1459.018677 841.164307,1458.949219 
	C841.903076,1459.042847 842.053589,1459.274902 842.003052,1459.819214 
	C841.955139,1460.032104 842.007690,1459.978027 842.025818,1459.944824 
	C841.429504,1459.847168 840.815063,1459.782837 840.030334,1459.398926 
z"/>
<path fill="#BEBEBE" opacity="1.000000" stroke="none" 
	d="
M1343.900146,653.818237 
	C1343.352783,654.074280 1342.966553,654.087402 1342.292725,654.051636 
	C1342.501587,653.533875 1342.997925,653.065002 1343.763184,652.827087 
	C1344.031982,653.058044 1344.014893,653.024475 1344.005615,653.010132 
	C1344.017944,653.188965 1344.039673,653.382080 1343.900146,653.818237 
z"/>
<path fill="#BEBEBE" opacity="1.000000" stroke="none" 
	d="
M1031.632568,669.010620 
	C1031.556274,668.864563 1031.480103,668.840820 1031.403931,668.817078 
	C1031.480103,668.922363 1031.556396,669.027710 1031.632568,669.010620 
z"/>
<path fill="#C5C5C5" opacity="1.000000" stroke="none" 
	d="
M1469.566406,689.833984 
	C1469.562500,689.800720 1469.570068,689.867188 1469.566406,689.833984 
z"/>
<path fill="#C5C5C5" opacity="1.000000" stroke="none" 
	d="
M434.544342,1469.228271 
	C434.571594,1469.198120 434.517120,1469.258423 434.544342,1469.228271 
z"/>
<path fill="#BEBEBE" opacity="1.000000" stroke="none" 
	d="
M618.786743,1453.218994 
	C618.883301,1453.719971 618.691589,1454.139038 618.499878,1454.558105 
	C618.303467,1454.306519 618.107117,1454.055054 617.916382,1453.552002 
	C618.114197,1453.245850 618.306335,1453.191406 618.786743,1453.218994 
z"/>
<path fill="#D3D3D3" opacity="1.000000" stroke="none" 
	d="
M490.747803,1450.324707 
	C490.796936,1450.201538 490.884308,1450.072998 490.971680,1449.944336 
	C490.841736,1449.992065 490.711823,1450.039673 490.675293,1450.240479 
	C490.768707,1450.393433 490.786041,1450.319214 490.747803,1450.324707 
z"/>
<path fill="#BEBEBE" opacity="1.000000" stroke="none" 
	d="
M781.070801,1423.081421 
	C781.269775,1422.495850 781.636536,1422.098389 782.377563,1421.718994 
	C782.751831,1421.737305 783.057678,1422.053101 783.057678,1422.053101 
	C782.720581,1422.467773 782.383484,1422.882446 781.822083,1423.460205 
	C781.478027,1423.505249 781.358276,1423.387329 781.070801,1423.081421 
z"/>
<path fill="#BEBEBE" opacity="1.000000" stroke="none" 
	d="
M828.065125,1423.076172 
	C828.265442,1422.488159 828.632385,1422.087524 829.369629,1421.705566 
	C829.739929,1421.723999 830.046631,1422.042480 830.046631,1422.042480 
	C829.710083,1422.459717 829.373596,1422.876953 828.811523,1423.456299 
	C828.467896,1423.500122 828.349854,1423.381958 828.065125,1423.076172 
z"/>
<path fill="#C5C5C5" opacity="1.000000" stroke="none" 
	d="
M588.986145,1445.913818 
	C589.080994,1445.975708 589.175842,1446.037598 589.139648,1446.028687 
	C589.008606,1445.957764 588.986145,1445.913818 588.986145,1445.913818 
z"/>
<path fill="#D3D3D3" opacity="1.000000" stroke="none" 
	d="
M539.614746,1445.819458 
	C539.514099,1445.817871 539.453735,1445.921265 539.393433,1446.024780 
	C539.480591,1445.991333 539.567810,1445.957886 539.614746,1445.819458 
z"/>
<path fill="#C5C5C5" opacity="1.000000" stroke="none" 
	d="
M1197.637207,623.422546 
	C1197.067505,623.199280 1196.641479,622.814331 1195.472290,621.757996 
	C1196.865234,622.131958 1197.340820,622.259583 1197.937500,622.658386 
	C1198.058716,622.929504 1197.780884,623.260925 1197.637207,623.422546 
z"/>
<path fill="#C5C5C5" opacity="1.000000" stroke="none" 
	d="
M927.168701,1490.722168 
	C926.777161,1490.781372 926.385620,1490.840454 925.767212,1490.670898 
	C925.540405,1490.442017 925.786804,1490.201172 925.911987,1490.082764 
	C926.337646,1490.095825 926.638062,1490.227295 927.040405,1490.565186 
	C927.142273,1490.771606 927.168701,1490.722168 927.168701,1490.722168 
z"/>
<path fill="#D3D3D3" opacity="1.000000" stroke="none" 
	d="
M1142.892456,653.847046 
	C1142.651855,654.264038 1142.302002,654.509827 1141.631104,654.704956 
	C1141.310059,654.654297 1141.268921,654.562561 1141.549194,654.314697 
	C1142.013672,653.915222 1142.197998,653.763733 1142.382202,653.612183 
	C1142.382202,653.612183 1142.783203,653.675964 1142.892456,653.847046 
z"/>
<path fill="#E6E6E6" opacity="1.000000" stroke="none" 
	d="
M1389.632690,653.597534 
	C1390.033936,653.768799 1390.435059,653.940002 1390.459229,654.097656 
	C1389.932373,653.921936 1389.782471,653.759705 1389.632690,653.597534 
z"/>
<path fill="#BEBEBE" opacity="1.000000" stroke="none" 
	d="
M831.082153,1421.114502 
	C830.890015,1421.371094 830.725403,1421.658936 830.303711,1421.994629 
	C830.046631,1422.042480 829.739929,1421.723999 829.603760,1421.548828 
	C829.849121,1421.197998 830.230652,1421.022339 830.884033,1421.030762 
	C831.155884,1421.214722 831.109802,1421.145508 831.082153,1421.114502 
z"/>
<path fill="#C5C5C5" opacity="1.000000" stroke="none" 
	d="
M878.492798,1490.692749 
	C878.461121,1491.004639 878.426697,1491.318359 878.392273,1491.632202 
	C878.304810,1491.412964 878.217346,1491.193726 878.335205,1490.821655 
	C878.540588,1490.668823 878.490173,1490.694702 878.492798,1490.692749 
z"/>
<path fill="#BEBEBE" opacity="1.000000" stroke="none" 
	d="
M554.006470,1490.970703 
	C553.849731,1491.188110 553.713501,1491.437500 553.577271,1491.686768 
	C553.608459,1491.511353 553.639648,1491.336060 553.880371,1491.102783 
	C554.089966,1491.044800 554.026855,1491.002563 554.006470,1490.970703 
z"/>
<path fill="#D3D3D3" opacity="1.000000" stroke="none" 
	d="
M1140.834473,653.198120 
	C1141.197144,653.198364 1141.588257,653.162842 1142.180664,653.369751 
	C1142.197998,653.763733 1142.013672,653.915222 1141.532715,654.267090 
	C1141.072632,654.183594 1141.001221,653.878174 1140.974121,653.323914 
	C1140.926392,653.096497 1140.862915,653.162354 1140.834473,653.198120 
z"/>
<path fill="#C5C5C5" opacity="1.000000" stroke="none" 
	d="
M1353.910889,644.004883 
	C1354.289185,643.864685 1354.657349,643.719421 1354.993896,643.252258 
	C1354.962280,642.930298 1354.958008,642.912292 1354.958618,642.896240 
	C1354.616455,643.048645 1354.273682,643.217224 1353.903076,643.687622 
	C1353.875366,643.989502 1353.900757,643.999878 1353.910889,644.004883 
z"/>
<path fill="#C5C5C5" opacity="1.000000" stroke="none" 
	d="
M623.965454,1467.889404 
	C623.624573,1468.046509 623.282532,1468.220825 622.940430,1468.700928 
	C622.940369,1469.006714 622.969849,1469.008057 622.971008,1469.021729 
	C623.329163,1468.878296 623.686157,1468.721069 624.005493,1468.245850 
	C623.967834,1467.927612 623.964233,1467.906494 623.965454,1467.889404 
z"/>
<path fill="#C5C5C5" opacity="1.000000" stroke="none" 
	d="
M1444.088135,652.171753 
	C1444.070435,652.206787 1443.933960,652.036499 1443.933960,652.036499 
	C1443.933960,652.036499 1444.094116,652.243103 1444.139160,652.186768 
	C1444.184082,652.130432 1444.105835,652.136719 1444.088135,652.171753 
z"/>
<path fill="#BEBEBE" opacity="1.000000" stroke="none" 
	d="
M1183.990234,647.984192 
	C1183.990234,647.984192 1184.046875,647.953247 1184.021851,647.987549 
	C1183.996826,648.021790 1183.990234,647.984192 1183.990234,647.984192 
z"/>
<path fill="#C5C5C5" opacity="1.000000" stroke="none" 
	d="
M927.146362,1490.799316 
	C927.150452,1490.827026 927.132751,1491.008667 927.132751,1491.008667 
	C927.132751,1491.008667 927.243225,1490.931519 927.205933,1490.826904 
	C927.168701,1490.722168 927.142273,1490.771606 927.146362,1490.799316 
z"/>
<path fill="#BEBEBE" opacity="1.000000" stroke="none" 
	d="
M1183.974731,648.012573 
	C1183.952637,648.003418 1183.915771,647.809509 1183.915771,647.809509 
	C1183.915771,647.809509 1183.854858,648.069092 1183.922607,648.026611 
	C1183.990234,647.984192 1183.996826,648.021790 1183.974731,648.012573 
z"/>
<path fill="#BEBEBE" opacity="1.000000" stroke="none" 
	d="
M1181.506592,647.507568 
	C1181.487183,647.508301 1181.526001,647.506897 1181.506592,647.507568 
z"/>
<path fill="#E6E6E6" opacity="1.000000" stroke="none" 
	d="
M794.957642,1451.884277 
	C795.146118,1451.752808 795.553711,1451.827026 795.837158,1452.131348 
	C795.534302,1452.271118 795.355469,1452.180542 794.957642,1451.884277 
z"/>
<path fill="#BEBEBE" opacity="1.000000" stroke="none" 
	d="
M784.078735,1421.111816 
	C783.891602,1421.371948 783.732483,1421.662964 783.315552,1422.003662 
	C783.057678,1422.053101 782.751831,1421.737305 782.612671,1421.566406 
	C782.851868,1421.210938 783.230225,1421.026245 783.880615,1421.026978 
	C784.152710,1421.212402 784.106812,1421.142822 784.078735,1421.111816 
z"/>
<path fill="#C5C5C5" opacity="1.000000" stroke="none" 
	d="
M882.184021,1420.224609 
	C882.437012,1420.217163 882.505859,1420.409912 882.574707,1420.602661 
	C882.383118,1420.543335 882.191528,1420.484009 882.184021,1420.224609 
z"/>
<path fill="#C5C5C5" opacity="1.000000" stroke="none" 
	d="
M510.985474,1421.011475 
	C510.684204,1420.849976 510.365082,1420.702271 509.959290,1420.323242 
	C509.872650,1420.092041 509.881958,1420.169067 509.881958,1420.169067 
	C510.337341,1420.230957 510.792694,1420.292847 511.089264,1420.703613 
	C510.930481,1421.052490 510.967651,1421.025269 510.985474,1421.011475 
z"/>
<path fill="#C5C5C5" opacity="1.000000" stroke="none" 
	d="
M408.985413,1421.011230 
	C408.689423,1420.839722 408.366821,1420.690186 407.962585,1420.302246 
	C407.881012,1420.063843 407.896240,1420.137329 407.896240,1420.137329 
	C408.350433,1420.225708 408.804657,1420.314087 409.080688,1420.737793 
	C408.902466,1421.073364 408.958832,1421.033325 408.985413,1421.011230 
z"/>
<path fill="#BEBEBE" opacity="1.000000" stroke="none" 
	d="
M904.923828,1443.950928 
	C904.938843,1443.925659 904.827209,1444.084473 904.827209,1444.084473 
	C904.827209,1444.084473 905.021729,1444.013306 904.938293,1444.006348 
	C904.854858,1443.999390 904.908813,1443.976196 904.923828,1443.950928 
z"/>
<path fill="#C5C5C5" opacity="1.000000" stroke="none" 
	d="
M589.005127,1445.974854 
	C589.001587,1445.992065 588.911072,1445.818237 588.911072,1445.818237 
	C588.911072,1445.818237 588.905945,1446.060425 588.946045,1445.987061 
	C588.986145,1445.913818 589.008606,1445.957764 589.005127,1445.974854 
z"/>
<path fill="#BEBEBE" opacity="1.000000" stroke="none" 
	d="
M602.202881,1419.588867 
	C602.073486,1419.746704 601.935852,1419.933228 601.798218,1420.119751 
	C601.640198,1419.981323 601.482239,1419.842773 601.324341,1419.704346 
	C601.456299,1419.666870 601.588257,1419.629517 601.949768,1419.633789 
	C602.179321,1419.675293 602.194641,1419.617554 602.202881,1419.588867 
z"/>
<path fill="#C5C5C5" opacity="1.000000" stroke="none" 
	d="
M509.838837,1420.072998 
	C509.805023,1420.054077 509.946472,1419.934448 509.946472,1419.934448 
	C509.946472,1419.934448 509.764191,1420.091187 509.823059,1420.130127 
	C509.881958,1420.169067 509.872650,1420.092041 509.838837,1420.072998 
z"/>
<path fill="#BEBEBE" opacity="1.000000" stroke="none" 
	d="
M748.943420,1451.788330 
	C748.602234,1452.014160 748.390930,1451.982422 747.889893,1451.813965 
	C747.892578,1451.353638 748.185120,1451.030151 748.762634,1450.892944 
	C749.047607,1451.079346 749.007507,1451.016968 748.980652,1450.991333 
	C748.993591,1451.153931 749.033447,1451.342163 748.943420,1451.788330 
z"/>
<path fill="#D3D3D3" opacity="1.000000" stroke="none" 
	d="
M490.884644,1462.924438 
	C490.897552,1462.890991 490.819244,1463.099731 490.819244,1463.099731 
	C490.819244,1463.099731 491.001801,1462.971069 490.904541,1462.980225 
	C490.807281,1462.989380 490.871704,1462.957886 490.884644,1462.924438 
z"/>
<path fill="#C5C5C5" opacity="1.000000" stroke="none" 
	d="
M407.848694,1420.044800 
	C407.816376,1420.025757 407.956512,1419.910767 407.956512,1419.910767 
	C407.956512,1419.910767 407.768219,1420.074585 407.832214,1420.105957 
	C407.896240,1420.137329 407.881012,1420.063843 407.848694,1420.044800 
z"/>
<path fill="#C5C5C5" opacity="1.000000" stroke="none" 
	d="
M1332.489014,692.699524 
	C1332.451416,693.017090 1332.419312,693.336426 1332.386963,693.655823 
	C1332.292847,693.427551 1332.198608,693.199219 1332.323242,692.823364 
	C1332.541992,692.675781 1332.494385,692.701355 1332.489014,692.699524 
z"/>
<path fill="#D3D3D3" opacity="1.000000" stroke="none" 
	d="
M1102.144897,693.076599 
	C1102.123047,693.066345 1101.861450,693.033936 1101.861450,693.033936 
	C1101.861450,693.033936 1102.023560,693.303711 1102.119873,693.198669 
	C1102.216187,693.093628 1102.166748,693.086853 1102.144897,693.076599 
z"/>
<path fill="#C5C5C5" opacity="1.000000" stroke="none" 
	d="
M1521.209839,692.787109 
	C1521.203247,692.506470 1521.407104,692.431641 1521.611084,692.356812 
	C1521.547607,692.568909 1521.484009,692.780945 1521.209839,692.787109 
z"/>
<path fill="#D3D3D3" opacity="1.000000" stroke="none" 
	d="
M542.908081,1459.163818 
	C543.343140,1458.998657 543.565491,1459.015259 544.105103,1459.137451 
	C544.175293,1459.551880 543.928040,1459.860718 543.376709,1460.144409 
	C543.072632,1460.119263 542.986572,1459.934326 542.885193,1459.916016 
	C542.754395,1459.713745 542.724915,1459.529663 542.908081,1459.163818 
z"/>
<path fill="#D3D3D3" opacity="1.000000" stroke="none" 
	d="
M1036.928223,664.952515 
	C1036.943726,664.931396 1036.803833,665.093323 1036.803833,665.093323 
	C1036.803833,665.093323 1037.034302,665.034485 1036.948975,665.013062 
	C1036.863525,664.991638 1036.912598,664.973633 1036.928223,664.952515 
z"/>
<path fill="#C5C5C5" opacity="1.000000" stroke="none" 
	d="
M1441.031372,655.701416 
	C1440.927612,655.676697 1440.625610,655.471436 1440.519531,655.131836 
	C1440.754639,655.171936 1440.793945,655.346375 1441.031372,655.701416 
z"/>
<path fill="#E6E6E6" opacity="1.000000" stroke="none" 
	d="
M1390.436035,654.889160 
	C1390.017822,654.823914 1389.676392,654.674255 1389.169434,654.292847 
	C1389.003906,654.061035 1389.219116,653.694702 1389.425903,653.646118 
	C1389.782471,653.759705 1389.932373,653.921936 1390.303955,654.330322 
	C1390.525757,654.576599 1390.513062,654.804749 1390.436035,654.889160 
z"/>
</svg>